<?xml version="1.0" encoding="utf-8"?>
<!-- Generator: Adobe Illustrator 26.1.0, SVG Export Plug-In . SVG Version: 6.00 Build 0)  -->
<svg version="1.1" id="Layer_1" xmlns:xodm="http://www.corel.com/coreldraw/odm/2003"
	 xmlns="http://www.w3.org/2000/svg" xmlns:xlink="http://www.w3.org/1999/xlink" x="0px" y="0px" width="566.9px" height="566.9px"
	 viewBox="0 0 566.9 566.9" style="enable-background:new 0 0 566.9 566.9;" xml:space="preserve">
<style type="text/css">
	.st0{fill:#F85D03;}
</style>
<g id="Layer_x0020_1">
	<path class="st0" d="M183.1,265.2L183.1,265.2C183,265.5,182.9,265.7,183.1,265.2c4.2-11.8,7.3-20.5,17.6-28.5
		c13.4-10.3,36.6-16.4,36.6-16.4c4.5-1.2,7.2-5.9,6-10.4c-1.2-4.5-5.9-7.2-10.4-6c-0.1,0-26.5,7-42.5,19.3
		c-14.3,11-18.2,21.8-23.3,36.3c-1.3,3.5,0.4-1.1-1.1,3.2c-2.9,8.2-6,17.2-8.5,25.3c-2.4,7.7-4.5,14.9-5.8,20.6
		c-2.5,10.4-2.9,19.2-1.5,26.5c1.3,6.5,4,11.8,8.1,16c4.1,4.1,9.3,6.9,15.7,8.4c7.5,1.8,16.6,1.7,27.3-0.1l76.4,42.6
		c0.2,0.1,0.3,0.2,0.5,0.3l0,0l0.1,0.1l0.1,0l0.1,0c1.1,0.5,2.3,0.7,3.4,0.7c1.2,0,2.3-0.2,3.4-0.7l0.1,0l0.1,0l0.1-0.1l0,0
		c0.2-0.1,0.3-0.2,0.5-0.3l76.4-42.6c10.6,1.8,19.8,1.9,27.3,0.1c6.4-1.5,11.6-4.3,15.7-8.4c4.1-4.2,6.9-9.5,8.1-16
		c1.4-7.3,1-16.1-1.5-26.5c-1.3-5.7-3.4-12.9-5.8-20.6c-2.5-8.1-5.6-17.1-8.5-25.3c-1.5-4.3,0.1,0.3-1.1-3.2
		c-5.2-14.5-9-25.3-23.3-36.3c-16.1-12.4-42.5-19.3-42.5-19.3c-4.5-1.2-9.2,1.5-10.4,6c-1.2,4.5,1.5,9.2,6,10.4
		c0.1,0,23.3,6.1,36.6,16.4c10.3,7.9,13.4,16.7,17.6,28.5c0.2,0.5,0.1,0.3,0,0l0,0l1.2,3.3c2.7,7.4,5.6,16.1,8.3,24.6
		c2.3,7.3,4.2,14.1,5.5,19.4c1.9,8,2.3,14.4,1.3,19.3c-0.6,3.1-1.8,5.5-3.5,7.2c-1.8,1.8-4.3,3-7.5,3.8c-5.8,1.4-13.6,1.1-23.2-0.8
		c-9.1-1.8-17.9-4.1-17.9-4.1c-4.5-1.2-9.2,1.5-10.3,6.1c-1,3.7,0.7,7.5,3.8,9.4l-47.9,26.7v-58.8c0-5.8,1.4-10.5,4.1-14.3
		c2.9-4.2,7.5-7.9,13.7-11.4l40.2-22.9v46.6c0,4.7,3.8,8.5,8.5,8.5c4.7,0,8.5-3.8,8.5-8.5v-61.2h0c0-1.4-0.4-2.9-1.1-4.2
		c-2.3-4.1-7.5-5.5-11.6-3.2l-52.9,30.1c-7.5,4.3-13.5,9-17.9,14.6c-4.4-5.6-10.4-10.3-17.9-14.6l-52.9-30.1
		c-4.1-2.3-9.2-0.9-11.6,3.2c-0.8,1.3-1.1,2.8-1.1,4.2h0v61.2c0,4.7,3.8,8.5,8.5,8.5s8.5-3.8,8.5-8.5v-46.6l40.2,22.9
		c6.2,3.5,10.8,7.2,13.7,11.4c2.7,3.9,4.1,8.5,4.1,14.3v58.8l-47.9-26.7c3.1-1.9,4.8-5.7,3.8-9.4c-1.2-4.5-5.8-7.3-10.3-6.1
		c0,0-8.8,2.3-17.9,4.1c-9.6,1.9-17.4,2.2-23.2,0.8c-3.2-0.8-5.7-2-7.5-3.8c-1.7-1.7-2.9-4.1-3.5-7.2c-1-4.9-0.6-11.4,1.3-19.3
		c1.3-5.3,3.2-12.1,5.5-19.4c2.7-8.5,5.6-17.2,8.3-24.6L183.1,265.2L183.1,265.2z M260.5,430.4l4.3-2.2c-5.1-2.6-10.2-5.1-15.2-7.6
		l-1.4-0.7c-3.9-1.9-9.1-4.6-14.3-7.3c-10.7-5.5-21.4-11-32.2-15.5c-7.1-3-15.9-5.8-24.9-7.2c-6.9-1-13.8-1.2-19.9,0.1
		c-2.2,0.5-4.3,1.2-6.2,2c-5.2,2.3-9.1,6-11.4,10.5c-2.3,4.4-3,9.7-1.8,15.2c0.4,2,1.1,4,2,6c2.7,5.8,7,11.1,12.2,15.4
		c5.5,4.4,11.9,7.7,18.4,9.4c9,2.3,17.7,3,26.1,2.6c8.6-0.4,17-2,25.5-4.4c4.8-1.3,11-3.7,17.7-6.6
		C246.2,437.4,253.5,433.9,260.5,430.4L260.5,430.4z M303.2,467.1c-4.6-0.7-7.8-5-7.1-9.7c0.7-4.6,5-7.8,9.7-7.1
		c0.1,0,28.5,4.6,61.2,2.6c12.1-0.7,28.2-3.6,41.2-10c8.8-4.3,16.2-10.2,19.4-18.1c2.2-5.3,2.6-10,1.9-14.1
		c-0.8-4.4-3.2-8.2-6.6-11.4c-6.1-5.7-12.6-8.6-19.4-9.6c-7.2-1.1-14.8-0.1-22.4,2c-16.7,4.6-37.3,15.3-55.3,24.6
		c-4.2,2.2-8.2,4.2-13.5,6.9l-23.9,12c-0.6,0.4-1.3,0.8-2,1c-7.2,3.6-13.7,6.9-18.4,9.2c-7.5,3.7-15.1,7.3-22,10.3
		c-7.2,3.1-14,5.7-19.8,7.3c-9.6,2.7-19.3,4.5-29.2,5c-10.1,0.5-20.4-0.4-31-3.1c-8.9-2.3-17.6-6.7-24.9-12.7
		c-7.2-5.9-13.2-13.2-17-21.5c-1.4-3.2-2.5-6.3-3.2-9.5c-2-9.5-0.7-18.7,3.3-26.5c4-7.8,10.7-14.2,19.5-18.2c3-1.4,6.2-2.4,9.7-3.2
		c8.3-1.8,17.3-1.6,26-0.3c10.4,1.6,20.6,4.9,29,8.4c11.3,4.7,22.3,10.4,33.3,16.1c4.3,2.2,8.5,4.4,14.1,7.1l1.4,0.7
		c8.9,4.4,17.8,8.8,26.6,13.4l21.1-10.6c3.1-1.6,8.1-4.2,13.3-6.9c18.7-9.7,40-20.8,58.6-25.9c9.7-2.7,19.6-3.9,29.2-2.5
		c10.1,1.5,19.8,5.7,28.6,14.1c5.9,5.5,10.1,12.5,11.6,20.6c1.4,7.2,0.7,15.1-2.9,23.7c-5,12.1-15.4,20.8-27.6,26.8
		c-15.4,7.5-33.9,10.9-47.6,11.8C333.6,472,303.3,467.2,303.2,467.1L303.2,467.1z M308.3,124.6c-6.8-6.8-16.1-10.9-26.4-10.9
		c-10.3,0-19.7,4.2-26.4,10.9c-6.8,6.8-10.9,16.1-10.9,26.4s4.2,19.7,10.9,26.4c6.8,6.8,16.1,10.9,26.4,10.9
		c10.3,0,19.7-4.2,26.4-10.9s10.9-16.1,10.9-26.4C319.3,140.7,315.1,131.4,308.3,124.6z M281.9,96.7c15,0,28.6,6.1,38.5,15.9
		c9.8,9.8,15.9,23.4,15.9,38.5c0,15-6.1,28.6-15.9,38.5c-9.8,9.8-23.4,15.9-38.5,15.9s-28.6-6.1-38.5-15.9
		c-9.8-9.8-15.9-23.4-15.9-38.5c0-15,6.1-28.6,15.9-38.5S266.9,96.7,281.9,96.7z"/>
</g>
</svg>
