<svg viewBox="0 0 1200 630" xmlns="http://www.w3.org/2000/svg">
  <rect width="1200" height="630" fill="#f5f3f0"/>
  <circle cx="600" cy="315" r="180" fill="#f75c03" opacity="0.12"/>
  <path d="M 450 350 Q 450 280 500 250 Q 550 220 600 220 Q 650 220 700 250 Q 750 280 750 350" fill="none" stroke="#d94f02" stroke-width="5" stroke-linecap="round"/>
  <circle cx="550" cy="300" r="12" fill="#f75c03" opacity="1"/>
  <circle cx="650" cy="300" r="12" fill="#f75c03" opacity="1"/>
  <path d="M 550 340 Q 600 370 650 340" fill="none" stroke="#f75c03" stroke-width="4" stroke-linecap="round"/>
  <path d="M 300 450 L 400 400 L 500 420 L 600 380 L 700 410 L 800 370 L 900 450" fill="none" stroke="#ff9966" stroke-width="5" stroke-linecap="round" opacity="0.9"/>
  <circle cx="400" cy="400" r="8" fill="#ff9966"/>
  <circle cx="500" cy="420" r="8" fill="#ff9966"/>
  <circle cx="600" cy="380" r="8" fill="#ff9966"/>
  <circle cx="700" cy="410" r="8" fill="#ff9966"/>
  <circle cx="800" cy="370" r="8" fill="#ff9966"/>
  <text x="600" y="570" font-family="Abacaxi, Helvetica, Arial, sans-serif" font-size="36" font-weight="bold" fill="#0f0f0f" text-anchor="middle">
    Yoga & Mental Health
  </text>
</svg>
