<svg viewBox="0 0 1200 630" xmlns="http://www.w3.org/2000/svg">
  <rect width="1200" height="630" fill="#f5f3f0"/>
  <defs>
    <radialGradient id="nurture" cx="50%" cy="45%" r="30%">
      <stop offset="0%" style="stop-color:#ff9966;stop-opacity:0.35" />
      <stop offset="100%" style="stop-color:#f5f3f0;stop-opacity:0" />
    </radialGradient>
  </defs>
  <circle cx="600" cy="270" r="200" fill="url(#nurture)"/>
  <!-- Gentle protective curve -->
  <path d="M 350 200 Q 600 80 850 200" stroke="#f75c03" stroke-width="2.5" fill="none" opacity="0.35"/>
  <path d="M 380 240 Q 600 140 820 240" stroke="#ff9966" stroke-width="2" fill="none" opacity="0.3"/>
  <!-- Supportive base -->
  <path d="M 350 380 Q 600 420 850 380" stroke="#f75c03" stroke-width="2" fill="none" opacity="0.25"/>
  <!-- Center nurture circles -->
  <circle cx="600" cy="280" r="50" fill="none" stroke="#f75c03" stroke-width="2" opacity="0.3"/>
  <circle cx="600" cy="280" r="25" fill="#f75c03" opacity="0.2"/>
  <circle cx="600" cy="280" r="10" fill="#f75c03" opacity="0.35"/>
  <!-- Gentle bloom petals -->
  <ellipse cx="560" cy="240" rx="20" ry="35" fill="#ff9966" opacity="0.15" transform="rotate(-20 560 240)"/>
  <ellipse cx="640" cy="240" rx="20" ry="35" fill="#ff9966" opacity="0.15" transform="rotate(20 640 240)"/>
  <ellipse cx="560" cy="320" rx="20" ry="35" fill="#f75c03" opacity="0.12" transform="rotate(20 560 320)"/>
  <ellipse cx="640" cy="320" rx="20" ry="35" fill="#f75c03" opacity="0.12" transform="rotate(-20 640 320)"/>
  <text x="600" y="560" font-family="Abacaxi, Helvetica, Arial, sans-serif" font-size="30" font-weight="bold" fill="#0f0f0f" text-anchor="middle">
    Yoga efter Graviditet
  </text>
</svg>