<?xml version="1.0" encoding="utf-8"?>
<!-- Generator: Adobe Illustrator 26.1.0, SVG Export Plug-In . SVG Version: 6.00 Build 0)  -->
<svg version="1.1" id="Layer_1" xmlns:xodm="http://www.corel.com/coreldraw/odm/2003"
	 xmlns="http://www.w3.org/2000/svg" xmlns:xlink="http://www.w3.org/1999/xlink" x="0px" y="0px" width="1984.3px"
	 height="566.9px" viewBox="0 0 1984.3 566.9" style="enable-background:new 0 0 1984.3 566.9;" xml:space="preserve">
<style type="text/css">
	.st0{fill:#F85D03;}
</style>
<g id="Layer_x0020_1">
	<path class="st0" d="M275.9,265.3L275.9,265.3C275.8,265.6,275.7,265.8,275.9,265.3c4.2-11.8,7.3-20.5,17.6-28.5
		c13.4-10.3,36.6-16.4,36.6-16.4c4.5-1.2,7.2-5.9,6-10.4c-1.2-4.5-5.9-7.2-10.4-6c-0.1,0-26.5,7-42.5,19.3
		c-14.3,11-18.2,21.8-23.3,36.3c-1.3,3.5,0.4-1.1-1.1,3.2c-2.9,8.2-6,17.2-8.5,25.3c-2.4,7.7-4.5,14.9-5.8,20.6
		c-2.5,10.4-2.9,19.2-1.5,26.5c1.3,6.5,4,11.8,8.1,16c4.1,4.1,9.3,6.9,15.7,8.4c7.5,1.8,16.6,1.7,27.3-0.1l76.4,42.6
		c0.2,0.1,0.3,0.2,0.5,0.3l0,0l0.1,0.1l0.1,0l0.1,0c1.1,0.5,2.3,0.7,3.4,0.7c1.2,0,2.3-0.2,3.4-0.7l0.1,0l0.1,0l0.1-0.1l0,0
		c0.2-0.1,0.3-0.2,0.5-0.3l76.4-42.6c10.6,1.8,19.8,1.9,27.3,0.1c6.4-1.5,11.6-4.3,15.7-8.4c4.1-4.2,6.9-9.5,8.1-16
		c1.4-7.3,1-16.1-1.5-26.5c-1.3-5.7-3.4-12.9-5.8-20.6c-2.5-8.1-5.6-17.1-8.5-25.3c-1.5-4.3,0.1,0.3-1.1-3.2
		c-5.2-14.5-9-25.3-23.3-36.3c-16.1-12.4-42.5-19.3-42.5-19.3c-4.5-1.2-9.2,1.5-10.4,6c-1.2,4.5,1.5,9.2,6,10.4
		c0.1,0,23.3,6.1,36.6,16.4c10.3,7.9,13.4,16.7,17.6,28.5c0.2,0.5,0.1,0.3,0,0l0,0l1.2,3.3c2.7,7.4,5.6,16.1,8.3,24.6
		c2.3,7.3,4.2,14.1,5.5,19.4c1.9,8,2.3,14.4,1.3,19.3c-0.6,3.1-1.8,5.5-3.5,7.2c-1.8,1.8-4.3,3-7.5,3.8c-5.8,1.4-13.6,1.1-23.2-0.8
		c-9.1-1.8-17.9-4.1-17.9-4.1c-4.5-1.2-9.2,1.5-10.3,6.1c-1,3.7,0.7,7.5,3.8,9.4l-47.9,26.7v-58.8c0-5.8,1.4-10.5,4.1-14.3
		c2.9-4.2,7.5-7.9,13.7-11.4l40.2-22.9v46.6c0,4.7,3.8,8.5,8.5,8.5s8.5-3.8,8.5-8.5v-61.2h0c0-1.4-0.4-2.9-1.1-4.2
		c-2.3-4.1-7.5-5.5-11.6-3.2L392.6,281c-7.5,4.3-13.5,9-17.9,14.6c-4.4-5.6-10.4-10.3-17.9-14.6l-52.9-30.1
		c-4.1-2.3-9.2-0.9-11.6,3.2c-0.8,1.3-1.1,2.8-1.1,4.2h0v61.2c0,4.7,3.8,8.5,8.5,8.5c4.7,0,8.5-3.8,8.5-8.5v-46.6l40.2,22.9
		c6.2,3.5,10.8,7.2,13.7,11.4c2.7,3.9,4.1,8.5,4.1,14.3v58.8l-47.9-26.7c3.1-1.9,4.8-5.7,3.8-9.4c-1.2-4.5-5.8-7.3-10.3-6.1
		c0,0-8.8,2.3-17.9,4.1c-9.6,1.9-17.4,2.2-23.2,0.8c-3.2-0.8-5.7-2-7.5-3.8c-1.7-1.7-2.9-4.1-3.5-7.2c-1-4.9-0.6-11.4,1.3-19.3
		c1.3-5.3,3.2-12.1,5.5-19.4c2.7-8.5,5.6-17.2,8.3-24.6L275.9,265.3L275.9,265.3z M587.4,222.3h24.4l43,80.6h-2.9l43.6-80.6h23.9
		L663.1,319v60.5h-20.6v-61L587.4,222.3z M792.3,365.4c11.4,0,21.2-2.5,29.4-7.6c8.2-5.1,14.5-12.4,18.8-22
		c4.4-9.6,6.6-21.2,6.8-34.8c-0.1-13.6-2.4-25.2-6.9-34.8c-4.4-9.6-10.7-16.9-18.7-22c-8-5.1-17.8-7.6-29.1-7.6
		c-10.9,0-20.5,2.5-28.6,7.6c-8.1,5.1-14.4,12.5-18.8,22.2c-4.4,9.7-6.6,21.2-6.6,34.7c0,13.6,2.2,25.2,6.6,34.8
		c4.4,9.6,10.7,16.9,18.8,22C772.1,362.8,781.6,365.4,792.3,365.4z M792.3,383.6c-14.9,0-28-3.3-39.3-9.9
		c-11.3-6.6-20-16.1-26.1-28.5c-6.1-12.4-9.3-27.2-9.4-44.5c0.1-17,3.2-31.7,9.3-44.2c6.1-12.5,14.7-22,26-28.5
		c11.3-6.5,24.6-9.7,39.8-9.7c15.4,0,28.7,3.2,40,9.7c11.3,6.5,20,16,26.1,28.5c6.1,12.5,9.1,27.3,9,44.4c0.1,17-2.8,31.7-9,44.2
		c-6.1,12.5-14.9,22-26.2,28.6S807.7,383.6,792.3,383.6L792.3,383.6z M1001.3,268.4c-1.8-9.7-6-17.5-12.7-23.3
		c-6.7-5.8-17-8.6-30.9-8.6c-11.2,0-20.9,2.6-29.1,7.9c-8.2,5.2-14.5,12.7-18.8,22.4c-4.4,9.7-6.5,21.2-6.5,34.4
		c0,13.1,2.3,24.5,6.8,34.1c4.5,9.6,11.1,17,19.7,22.3c8.6,5.2,19,7.9,31.1,7.9c8.4,0,15.7-0.7,21.8-2.2c6.1-1.5,11-3.1,14.5-5
		c3.5-1.8,6.1-3.6,7.5-5.2l-1.6,11.7v-58.3l9.1,9.1h-52.3v-17.3h64v65.6c-2.5,2.2-6.4,4.8-11.7,7.9c-5.3,3-12.5,5.8-21.5,8.2
		c-9,2.4-19.2,3.7-30.6,3.7c-15.5,0-29.1-3.4-40.9-10.1c-11.7-6.7-20.9-16.3-27.4-28.8c-6.5-12.5-9.7-27.1-9.7-44
		c0-17,3-31.6,9.1-44c6.1-12.3,14.8-21.8,26.1-28.5c11.4-6.6,24.8-10,40.3-10c19.8,0,35.1,4.4,46,13.1c10.9,8.7,17.1,21,18.7,37
		L1001.3,268.4L1001.3,268.4z M1094,222.3h25.5l60,157.3h-22.4l-14.4-39.4h-72.2l-14.4,39.4h-22.4L1094,222.3z M1136.4,322.9
		l-31.6-86.4h3.5l-31.6,86.4H1136.4z M1241.2,239.1v50.5h40.1c6.9,0,13-1,18.1-3c5.1-2,9-4.9,11.9-8.9c2.8-3.9,4.2-8.7,4.2-14.3
		c-0.1-7.8-2.5-13.8-7.2-18.1c-4.7-4.2-11.9-6.3-21.8-6.3L1241.2,239.1L1241.2,239.1z M1241.2,306v56.7h47.8
		c10.5,0,18.4-2.4,23.8-7.2c5.4-4.8,8.2-11.7,8.3-20.7c0-9.7-2.8-17-8.5-21.7c-5.7-4.7-14.3-7-25.8-6.9L1241.2,306L1241.2,306z
		 M1289.7,222.3c10.2,0,18.8,1.6,25.7,4.7c6.9,3.1,12.1,7.5,15.5,13.3c3.4,5.8,5.2,12.6,5.3,20.6c-0.1,6.3-1.8,12.2-5,17.5
		c-3.2,5.3-7.6,9.7-13.4,13.3c-5.8,3.5-12.6,6.1-20.4,7.8l2-5.8c8.9,0.7,16.5,2.9,22.8,6.4c6.3,3.5,11.2,8.3,14.5,14.4
		c3.3,6.1,5.1,13.1,5.2,21c-0.1,9-2.3,16.8-6.4,23.5c-4.1,6.6-10,11.7-17.7,15.3c-7.7,3.5-16.7,5.3-27,5.3h-70l-0.2-157.3
		L1289.7,222.3L1289.7,222.3z M1362,222.3h20.6v157.3H1362V222.3L1362,222.3z M1431.6,239.1v50.5h40.1c6.9,0,13-1,18.1-3
		c5.1-2,9-4.9,11.9-8.9c2.8-3.9,4.2-8.7,4.2-14.3c-0.1-7.8-2.5-13.8-7.2-18.1c-4.7-4.2-11.9-6.3-21.8-6.3L1431.6,239.1L1431.6,239.1
		z M1431.6,306v56.7h47.8c10.5,0,18.4-2.4,23.8-7.2c5.4-4.8,8.2-11.7,8.3-20.7c0-9.7-2.8-17-8.5-21.7c-5.7-4.7-14.3-7-25.8-6.9
		L1431.6,306L1431.6,306z M1480.1,222.3c10.2,0,18.8,1.6,25.7,4.7c6.9,3.1,12.1,7.5,15.5,13.3c3.4,5.8,5.2,12.6,5.3,20.6
		c-0.1,6.3-1.8,12.2-5,17.5c-3.2,5.3-7.6,9.7-13.4,13.3c-5.8,3.5-12.6,6.1-20.4,7.8l2-5.8c8.9,0.7,16.5,2.9,22.8,6.4
		c6.3,3.5,11.2,8.3,14.5,14.4c3.3,6.1,5.1,13.1,5.2,21c-0.1,9-2.3,16.8-6.4,23.5c-4.1,6.6-10,11.7-17.7,15.3
		c-7.7,3.5-16.7,5.3-27,5.3h-70l-0.2-157.3L1480.1,222.3L1480.1,222.3z M1551.5,222.3h20.4v138.9h77.8l-0.2,18.4h-98.1L1551.5,222.3
		L1551.5,222.3z M1661.9,222.3h109.6l-0.2,18.2h-89V289l80.2-0.4l-0.2,17.9l-80,0.2v54.7h89.3l-0.2,18.2h-109.6L1661.9,222.3
		L1661.9,222.3z M353.2,430.5l4.3-2.2c-5.1-2.6-10.2-5.1-15.2-7.6l-1.4-0.7c-3.9-1.9-9.1-4.6-14.3-7.3c-10.7-5.5-21.4-11-32.2-15.5
		c-7.1-3-15.9-5.8-24.9-7.2c-6.9-1-13.8-1.2-19.9,0.1c-2.2,0.5-4.3,1.2-6.2,2c-5.2,2.3-9.1,6-11.4,10.5c-2.3,4.4-3,9.7-1.8,15.2
		c0.4,2,1.1,4,2,6c2.7,5.8,7,11.1,12.2,15.4c5.5,4.4,11.9,7.7,18.4,9.4c9,2.3,17.7,3,26.1,2.6c8.6-0.4,17-2,25.5-4.4
		c4.8-1.3,11-3.7,17.7-6.6C339,437.5,346.2,434,353.2,430.5L353.2,430.5z M396,467.3c-4.6-0.7-7.8-5-7.1-9.7s5-7.8,9.7-7.1
		c0.1,0,28.5,4.6,61.2,2.6c12.1-0.7,28.2-3.6,41.2-10c8.8-4.3,16.2-10.2,19.4-18.1c2.2-5.3,2.6-10,1.9-14.1
		c-0.8-4.4-3.2-8.2-6.6-11.4c-6.1-5.7-12.6-8.6-19.4-9.6c-7.2-1.1-14.8-0.1-22.4,2c-16.7,4.6-37.3,15.3-55.3,24.6
		c-4.2,2.2-8.2,4.2-13.5,6.9l-23.9,12c-0.6,0.4-1.3,0.8-2,1c-7.2,3.6-13.7,6.9-18.4,9.2c-7.5,3.7-15.1,7.3-22,10.3
		c-7.2,3.1-14,5.7-19.8,7.3c-9.6,2.7-19.3,4.5-29.2,5c-10.1,0.5-20.4-0.4-31-3.1c-8.9-2.3-17.6-6.7-24.9-12.7
		c-7.2-5.9-13.2-13.2-17-21.5c-1.4-3.2-2.5-6.3-3.2-9.5c-2-9.5-0.7-18.7,3.3-26.5c4-7.8,10.7-14.2,19.5-18.2c3-1.4,6.2-2.4,9.7-3.2
		c8.3-1.8,17.3-1.6,26-0.3c10.4,1.6,20.6,4.9,29,8.4c11.3,4.7,22.3,10.4,33.3,16.1c4.3,2.2,8.5,4.4,14.1,7.1l1.4,0.7
		c8.9,4.4,17.8,8.8,26.6,13.4l21.1-10.6c3.1-1.6,8.1-4.2,13.3-6.9c18.7-9.7,40-20.8,58.6-25.9c9.7-2.7,19.6-3.9,29.2-2.5
		c10.1,1.5,19.8,5.7,28.6,14.1c5.9,5.5,10.1,12.5,11.6,20.6c1.4,7.2,0.7,15.1-2.9,23.7c-5,12.1-15.4,20.8-27.6,26.8
		c-15.4,7.5-33.9,10.9-47.6,11.8C426.3,472.1,396.1,467.3,396,467.3L396,467.3z M401.1,124.7c-6.8-6.8-16.1-10.9-26.4-10.9
		c-10.3,0-19.7,4.2-26.4,10.9c-6.8,6.8-10.9,16.1-10.9,26.4c0,10.3,4.2,19.7,10.9,26.4c6.8,6.8,16.1,10.9,26.4,10.9
		c10.3,0,19.7-4.2,26.4-10.9s10.9-16.1,10.9-26.4C412.1,140.9,407.9,131.5,401.1,124.7z M374.7,96.8c15,0,28.6,6.1,38.5,15.9
		c9.8,9.8,15.9,23.4,15.9,38.5c0,15-6.1,28.6-15.9,38.5c-9.8,9.8-23.4,15.9-38.5,15.9c-15,0-28.6-6.1-38.5-15.9
		c-9.8-9.8-15.9-23.4-15.9-38.5c0-15,6.1-28.6,15.9-38.5C346,102.9,359.6,96.8,374.7,96.8z"/>
</g>
</svg>
