<svg width="2984" height="499" viewBox="0 0 2984 499" fill="none" xmlns="http://www.w3.org/2000/svg">
<path d="M2616.62 288.693C2616.62 282.772 2614.99 278.085 2612.48 273.139C2611.18 270.555 2609.74 268.09 2608.09 265.161C2606.49 262.323 2604.78 259.187 2603.25 255.713C2599.82 247.907 2599.34 239.289 2599.82 232.073C2600.3 224.769 2601.81 218.246 2602.87 214.26C2603.23 212.907 2603.4 211.602 2603.36 210.536C2603.32 209.449 2603.09 209.016 2603.04 208.948C2603.03 208.934 2603.04 208.936 2603.02 208.923C2602.99 208.905 2602.83 208.797 2602.42 208.692C2601.53 208.465 2599.62 208.298 2596.17 209.029C2591.2 210.085 2581.86 210.507 2571.37 210.668C2560.58 210.834 2547.7 210.723 2535.11 210.504C2509.62 210.06 2485.84 209.192 2481.12 209.192C2479.31 209.192 2477.18 209.041 2475.87 208.981C2475.13 208.946 2474.53 208.932 2474.04 208.937C2473.53 216.743 2471.25 224.094 2469.46 230.469C2467.47 237.544 2465.9 243.957 2466.11 250.965C2466.3 257.135 2468.57 260.127 2470.94 261.728C2473.64 263.549 2477.65 264.342 2482.15 263.755C2487.54 263.051 2492.27 262.542 2495.88 263.284C2498.07 263.736 2500.27 264.704 2502.09 266.558C2503.77 268.256 2504.63 270.198 2505.14 271.559C2506.33 274.734 2505.77 277.87 2505.37 279.649C2504.92 281.59 2504.17 283.767 2503.62 285.466C2502.36 289.312 2501.44 292.601 2501.61 295.798C2501.88 301.079 2501.6 308.699 2500.47 316.458C2499.36 324.105 2497.33 332.631 2493.7 339.283C2490.14 345.809 2482.85 354.874 2471.53 360.274C2459.87 365.836 2444.7 367.133 2426.56 359.041C2407.24 350.422 2398.84 332.939 2396.21 316.904C2394.9 308.865 2394.97 300.93 2395.89 294.099C2396.78 287.426 2398.58 281.178 2401.18 276.833C2407.53 266.265 2409.09 257.596 2407.63 235.181C2406.19 213.087 2401.36 198.916 2413.13 168.95C2419.02 153.975 2426.36 144.581 2435.24 138.976C2444.02 133.43 2453.35 132.226 2461.65 131.707C2467.58 131.336 2473.19 133.297 2477.98 135.957C2482.81 138.64 2487.3 142.314 2491.22 146.133C2499.01 153.717 2505.37 162.72 2508.25 168.199C2508.25 168.201 2508.26 168.208 2508.28 168.233C2508.3 168.26 2508.38 168.334 2508.54 168.442C2508.88 168.671 2509.54 169.009 2510.71 169.341C2513.16 170.031 2516.78 170.415 2521.87 170.506C2526.89 170.596 2532.78 170.401 2539.62 170.173C2546.38 169.947 2553.97 169.692 2562.12 169.692C2578.35 169.692 2587.04 170.33 2592.37 170.643C2597.17 170.925 2598.15 170.832 2599.54 170.333C2599.79 169.553 2600.15 167.67 2600 163.742C2599.65 155.185 2597.08 140.214 2590.82 113.93C2579.16 64.9582 2541.09 48.7037 2524.41 37.4015C2517.97 33.0387 2500.48 25.9214 2475.87 22.8214C2451.5 19.7531 2420.79 20.7135 2388.02 31.797C2336.81 49.1171 2318.01 91.6648 2315.02 109.905C2308.09 153.677 2308.28 178.042 2309.53 192.549C2310.17 199.99 2311.04 204.594 2311.61 208.983C2312.14 213.076 2312.49 217.53 2310.51 222.147C2308.56 226.683 2307.19 232.299 2306.98 236.842C2306.88 239.13 2307.1 240.697 2307.38 241.574C2307.4 241.626 2307.41 241.672 2307.43 241.713C2312.72 244.459 2316.9 250.241 2318.99 255.693C2321.15 261.306 2322.31 270.105 2315.92 276.495C2313.23 279.185 2312.75 280.74 2312.68 281.287C2312.65 281.502 2312.58 282.084 2313.44 283.308C2313.71 283.377 2314.15 283.472 2314.81 283.568C2315.86 283.724 2316.94 283.826 2318.47 283.999C2319.89 284.159 2321.57 284.368 2323.29 284.716C2326.69 285.405 2330.95 286.761 2334.53 290.092C2338.25 293.555 2340.42 298.371 2341.07 304.386C2341.83 311.387 2339.5 316.803 2335.26 320.836C2331.64 324.28 2326.69 326.578 2322.93 328.389C2314.62 332.383 2307.65 335.954 2304.09 344.952C2300.39 354.296 2302.41 361.399 2306.73 366.973C2311.36 372.948 2318.89 377.357 2325.85 379.533C2346 385.829 2351.62 404.419 2349.47 415.163C2349.17 416.669 2348.97 417.88 2348.86 418.864C2351.57 419.077 2355.98 419.649 2359.84 421.905C2365.93 425.465 2369.5 432.041 2370.1 441.725C2370.65 450.574 2368.6 457.669 2368.19 461.1C2367.78 464.451 2367.84 468.246 2372.17 476.05C2373.51 478.451 2375.82 480.317 2379.86 481.645C2384.05 483.021 2389.58 483.632 2396.43 483.693C2403.23 483.752 2410.76 483.275 2418.85 482.755C2426.84 482.242 2435.33 481.693 2443.62 481.693C2474.9 481.693 2525.46 474.294 2561.92 453.664C2580.9 442.929 2586 437.369 2588.25 431.948C2589.47 428.995 2590.06 425.583 2590.73 420.179C2591.37 414.936 2592.07 408.189 2593.76 399.722C2596.91 383.967 2595.5 376.857 2593.73 373.504C2592.13 370.459 2589.63 369.176 2584.71 367.105C2583.62 366.649 2582.49 366.207 2581.27 365.73C2580.08 365.265 2578.78 364.761 2577.51 364.233C2575.04 363.202 2572.18 361.881 2569.68 360.056C2567.13 358.185 2564.52 355.462 2563.3 351.516C2562.06 347.537 2562.58 343.426 2564.13 339.459C2565.51 335.939 2567.31 332.82 2570.04 330.367C2572.79 327.884 2575.91 326.616 2578.96 325.815C2581.83 325.059 2585.21 324.588 2588.57 324.087C2592.09 323.562 2596.14 322.935 2601.01 321.866C2608.29 320.267 2611.9 316.063 2614.01 310.303C2616.31 304.009 2616.62 296.248 2616.62 288.693ZM2672.12 202.692C2672.12 197.445 2671.83 193.957 2670.25 191.402C2669.04 189.465 2666.04 186.535 2656.44 185.661C2643.55 184.49 2634.38 178.867 2629.54 170.707C2624.83 162.775 2624.82 153.374 2628.34 145.968C2631.85 138.607 2638.39 133.568 2645.46 130.362C2652.57 127.136 2660.81 125.475 2668.86 125.197C2674.95 124.987 2682.26 122.941 2687.33 119.172C2691.93 115.754 2694.54 111.187 2693.3 104.398C2692.04 100.026 2691 93.3851 2691.69 86.5109C2692.4 79.3977 2695.09 70.9811 2702.54 65.2482C2710.36 59.2379 2716.71 57.938 2720.6 56.8888C2722.5 56.3749 2723.04 56.1029 2723.35 55.8868C2723.48 55.7936 2724 55.4232 2724.72 53.7384C2725.78 51.2697 2725.27 48.6949 2723.79 43.0118C2722.6 38.4051 2720.27 30.196 2725.38 22.5323C2728.89 17.2576 2733.16 12.6118 2740.66 9.94054C2747.59 7.47099 2756.61 6.94316 2769.07 7.70617C2781.23 8.45037 2797.16 8.05398 2813.24 8.44445C2821.04 8.634 2828.72 9.01654 2835.43 9.86047C2841.94 10.6785 2848.38 12.021 2853.16 14.5812C2861.35 18.9685 2869.24 26.8435 2875.37 33.1554C2878.61 36.4942 2881.34 39.3889 2883.78 41.7286C2884.98 42.8774 2885.97 43.7678 2886.8 44.4171C2887.66 45.0988 2888.06 45.2939 2888.07 45.2989C2896.2 48.7823 2897.9 57.6357 2895.84 64.2804C2893.66 71.3372 2887.44 77.3487 2878.11 79.922C2871.41 81.7693 2868.98 83.9699 2868.37 84.9484C2868.2 85.2313 2868.19 85.3474 2868.22 85.5372C2868.26 85.861 2868.5 86.7285 2869.57 88.1368C2870.96 89.95 2873.01 92.2019 2875.62 95.0831C2878.13 97.8407 2881.01 101.037 2883.63 104.363C2886.23 107.66 2888.81 111.384 2890.56 115.276C2892.3 119.121 2893.56 123.88 2892.43 128.855C2891.64 132.339 2890.21 135.842 2887.27 138.393C2884.25 141.006 2880.78 141.631 2878.17 141.802C2875.82 141.956 2872.8 141.772 2870.67 141.722C2868.21 141.664 2865.6 141.699 2862.68 142.117C2855.58 143.131 2849.99 144.369 2846.34 146.701C2844.69 147.753 2843.64 148.914 2842.98 150.269C2842.32 151.64 2841.8 153.738 2842.09 157.052C2842.25 158.896 2842.98 159.971 2844.44 160.942C2846.21 162.125 2849.04 163.05 2852.83 163.576C2860.76 164.676 2868.34 163.692 2873.12 163.692C2876.84 163.692 2882.79 163.933 2888.51 166.025C2894.45 168.202 2900.62 172.607 2903.26 180.918C2905.88 189.141 2903.25 196.73 2901.14 201.992C2899.9 205.054 2899.02 206.913 2898.17 209.245C2897.39 211.38 2897.12 212.749 2897.12 213.692C2897.12 218.029 2897.28 219.757 2898.45 222.088C2899.86 224.906 2902.95 228.919 2910.42 236.389C2919.32 245.287 2921.91 253.613 2921.74 262.028C2921.66 265.812 2921.03 269.524 2920.54 272.608C2920.02 275.862 2919.62 278.717 2919.62 281.693C2919.62 287.996 2920.8 291.524 2922.59 294.012C2924.47 296.64 2927.71 299.09 2933.76 301.883C2938.07 303.872 2941.53 306.703 2943.64 310.499C2945.77 314.328 2946.11 318.382 2945.52 322.018C2944.41 328.881 2939.91 335.001 2935.92 338.996C2932.3 342.62 2922.66 362.267 2946.13 393.707C2958.14 409.8 2967.46 416.083 2974.5 422.846C2977.98 426.191 2981.35 430.124 2982.75 435.651C2984.13 441.089 2983.32 446.883 2981.27 453.43C2977.61 465.143 2974.32 474.412 2968.15 480.829C2961.6 487.631 2952.85 490.302 2941.27 492.104C2929.99 493.858 2915.43 495.931 2901.25 496.192C2887.33 496.447 2872.49 495.004 2861.41 488.715C2848.63 481.459 2846.22 468.922 2846.43 458.725C2846.54 453.628 2847.29 448.628 2847.93 444.529C2848.64 440.083 2849.12 437.192 2849.12 435.193C2849.12 433.389 2848.77 432.728 2848.72 432.64C2848.71 432.626 2848.75 432.642 2848.64 432.589C2848.42 432.484 2847.95 432.336 2847.07 432.255C2846.15 432.17 2845.34 432.193 2844.12 432.193H2764.15L2763.69 432.135C2762.71 432.012 2760.82 432.082 2759.16 432.736C2757.7 433.308 2756.72 434.159 2756.19 435.67C2754.29 441.099 2749.47 452.418 2743.27 462.986C2740.17 468.276 2736.59 473.607 2732.71 477.972C2728.99 482.164 2724.25 486.311 2718.68 487.904C2714.01 489.237 2707.84 489.473 2701.51 489.387C2694.99 489.298 2687.36 488.832 2679.43 488.367C2663.31 487.423 2645.7 486.478 2630.43 488.148C2622.22 489.045 2614.87 488.613 2609.87 484.906C2603.69 480.328 2603.92 473.381 2605.11 468.811C2606.28 464.268 2608.88 459.635 2611.12 455.965C2613.77 451.646 2615.58 449.129 2617.1 446.472L2617.17 446.359L2617.17 446.358C2620.18 441.083 2625.23 432.223 2628.96 421.692C2632.72 411.094 2634.88 399.485 2632.76 388.636C2631.54 382.441 2630.42 377.947 2629.51 374.125C2628.63 370.399 2627.85 366.967 2627.58 363.455C2627 356.034 2628.79 349.196 2633.05 337.189L2633.24 336.636L2633.52 336.12C2634.85 333.659 2637.24 329.999 2640.33 326.462C2643.34 323.005 2647.53 319.079 2652.57 316.839C2653.14 316.583 2654.65 315.443 2654.17 311.623C2653.71 307.915 2651.21 302.571 2644.93 297.549C2640.4 293.925 2637.16 289.797 2635.62 285.113C2634.05 280.323 2634.49 275.692 2636.05 271.631C2638.97 264.013 2645.87 258.177 2651.46 254.452C2653.14 253.331 2653.77 252.405 2654.07 251.796C2654.39 251.133 2654.6 250.26 2654.63 248.832C2654.67 247.167 2654.49 245.753 2654.33 243.205C2654.2 240.996 2654.1 238.059 2654.81 235.006C2655.52 231.938 2657.54 228.571 2659.14 226.041C2660.84 223.341 2663.24 219.832 2665.14 216.915C2667.2 213.756 2669.03 210.751 2670.34 208.043C2671.73 205.17 2672.12 203.454 2672.12 202.692ZM1711.5 0.326285C1719.38 -0.0549576 1727.29 -0.163456 1734.16 0.337027C1740.7 0.813583 1747.52 1.90364 1752.36 4.6964C1758.66 8.3306 1764.34 11.9033 1767.66 17.2179C1771.26 22.9663 1771.36 29.4004 1770.57 36.5206C1770.26 39.283 1770.55 40.3222 1770.63 40.5646C1770.65 40.6262 1770.64 40.7411 1771.31 41.3517C1773.02 42.9161 1777.77 46.0963 1780.26 53.9181C1782.57 61.167 1782.06 68.9701 1778.15 75.4044C1774.16 81.9553 1767.19 86.1745 1758.44 87.1466C1754.85 87.5463 1751.29 87.7452 1748.25 87.9357C1745.08 88.1342 1742.56 88.32 1740.52 88.6554C1739.72 88.7869 1739.1 88.9283 1738.61 89.0665C1738.61 90.5668 1738.61 91.7427 1738.67 92.8487C1738.71 93.6764 1738.79 94.2208 1738.86 94.5665C1739.11 94.6186 1739.5 94.6744 1740.03 94.7042C1741.4 94.7802 1743.78 94.5398 1747.4 94.0011C1750.68 93.5135 1754.9 92.7936 1758.83 92.3107C1762.78 91.825 1767.14 91.4764 1771.1 91.8409C1774.69 92.1717 1779.55 93.2205 1782.98 96.9425L1783.31 97.3116L1783.76 97.8517C1785.93 100.595 1787.34 103.925 1788.36 106.833C1789.48 109.996 1790.44 113.603 1791.33 116.694C1792.26 119.961 1793.15 122.852 1794.21 125.317C1795.28 127.814 1796.31 129.349 1797.25 130.221C1800.4 133.176 1804.46 135.01 1807.38 134.944C1808.62 134.917 1809.61 134.568 1810.51 133.795C1811.48 132.958 1812.84 131.198 1813.93 127.555C1816.27 119.685 1816 112.342 1815.51 105.276C1815.28 101.917 1814.95 98.1736 1815.02 94.8653C1815.1 91.5334 1815.56 87.6037 1817.58 84.0157C1819.08 81.3499 1821.3 78.5627 1823.37 76.0763C1825.63 73.3639 1827.77 70.9232 1829.94 68.2032C1832.06 65.5479 1833.81 63.0937 1835.02 60.8546C1836.27 58.5541 1836.62 57.0517 1836.62 56.1925C1836.62 54.2719 1836.29 51.8321 1835.74 48.6808C1835.24 45.7557 1834.52 42.0923 1834.06 38.6212C1833.18 32.0246 1832.63 22.7484 1838.2 15.588C1843.26 9.07007 1850.19 6.22162 1858.01 4.91906C1865.51 3.66839 1874.86 3.6925 1885.62 3.6925C1890.78 3.6925 1897.51 3.21888 1905.27 2.62804C1912.91 2.04628 1921.42 1.36222 1929.74 1.01183C1938.03 0.662247 1946.41 0.629637 1953.83 1.4132C1961.04 2.17391 1968.38 3.79398 1973.82 7.48351C1982.36 13.2691 1988.41 20.4919 1987.98 29.9669C1987.6 38.5313 1981.86 46.3026 1975.01 53.3986C1971.46 57.088 1968.15 60.1325 1965.16 62.8175C1962.11 65.5593 1959.58 67.7654 1957.23 70.0626C1952.75 74.4269 1949.33 78.7191 1946.56 85.5157C1943.17 93.874 1939.61 100.096 1937.39 104.547C1935.09 109.145 1934.12 111.985 1934.12 115.192C1934.12 117.114 1934.48 120.49 1935.09 125.168C1935.67 129.581 1936.46 135.077 1937.12 140.398C1937.79 145.776 1938.37 151.379 1938.54 156.415C1938.71 161.222 1938.56 166.4 1937.26 170.467C1933.59 182.015 1927.05 198.497 1909.64 212.771C1909.56 212.863 1909.38 213.079 1909.13 213.442C1908.79 213.957 1908.4 214.672 1908.04 215.576C1907.34 217.364 1906.8 219.861 1907.08 223.014C1907.53 227.917 1908.6 235.694 1908.8 242.218C1908.9 245.578 1908.8 249.143 1908.17 252.396C1907.57 255.503 1906.29 259.394 1903.16 262.242C1899.75 265.346 1894.91 267.978 1892.09 269.74C1888.61 271.914 1886.94 273.402 1886.22 274.748C1884.45 278.027 1883.05 280.998 1883.34 284.432C1883.6 287.512 1885.46 292.768 1894.64 299.71C1900.23 303.934 1904.31 308.463 1905.88 313.545C1907.68 319.35 1905.79 324.39 1902.62 327.902C1899.77 331.062 1895.92 333.045 1892.76 334.272C1889.94 335.364 1887.07 336.083 1884.68 336.47C1884.45 336.766 1884.12 337.233 1883.72 337.931C1882.46 340.116 1881.2 343.252 1879.86 346.973C1878.65 350.352 1877.25 354.641 1876.04 357.764C1875.41 359.397 1874.7 361.087 1873.91 362.56C1873.26 363.759 1871.98 365.966 1869.78 367.433C1868.97 367.972 1866.11 370.674 1861.43 371.844C1857.39 372.856 1851.2 373.193 1840.12 373.193C1835.58 373.193 1833.84 374.312 1833.37 374.744C1833.09 374.997 1832.8 375.375 1832.94 376.478C1833.28 379.291 1836.48 384.074 1842.49 386.077C1846.28 387.34 1849.84 388.213 1853.37 389.067C1856.77 389.889 1860.42 390.752 1863.74 391.954C1867.14 393.191 1870.61 394.918 1873.66 397.721C1876.76 400.567 1879.08 404.182 1880.68 408.67C1884.58 419.602 1879.28 428.352 1873.62 433.537C1870.78 436.137 1867.6 438.132 1864.72 439.526C1861.99 440.851 1858.94 441.921 1856.29 442.161C1855.5 442.233 1854.65 442.264 1853.78 442.274C1862.44 451.659 1868.2 468.233 1858.04 481.297C1853.69 486.879 1848.21 491.244 1839.81 493.344C1831.86 495.33 1821.82 495.158 1808.48 493.106C1801.68 492.061 1796.18 490.82 1791.38 489.663C1786.48 488.484 1782.67 487.487 1778.74 486.753C1771.36 485.376 1763.69 484.972 1750.56 487.552C1742.34 489.167 1735.29 488.435 1729.49 485.518C1723.7 482.608 1720.01 477.947 1717.7 473.25C1713.26 464.213 1713.35 453.861 1713.64 450.117C1714.02 445.21 1716.11 439.815 1720.74 435.669C1725.4 431.488 1731.95 429.193 1740.12 429.193C1741.51 429.193 1742.34 429.034 1742.79 428.907C1742.78 428.468 1742.69 427.756 1742.4 426.74C1742 425.342 1741.33 423.776 1740.5 422.222L1740.23 421.723L1740.04 421.189C1738.38 416.471 1732.26 405.297 1722.42 399.718C1714.48 395.218 1707.8 389.484 1705.29 382.849C1703.92 379.228 1703.71 375.036 1705.72 371.086C1707.64 367.311 1711.04 364.851 1714.66 363.299C1722.47 359.951 1729.87 361.806 1734.16 362.943C1734.7 363.084 1735.16 363.209 1735.58 363.318C1735.63 361.613 1735.58 359.612 1735.55 357.087C1735.52 354.226 1735.53 350.835 1735.93 347.554C1736.32 344.324 1737.17 340.551 1739.26 337.218C1741.01 334.417 1743.47 331.885 1745.38 329.927C1747.51 327.748 1749.27 325.981 1750.71 324.092C1752.1 322.262 1752.83 320.76 1753.1 319.409C1753.34 318.195 1753.31 316.587 1752.27 314.261C1750.12 309.461 1746.6 307.086 1741.7 304.804C1739.66 303.857 1735.98 302.339 1733.49 301.07C1730.63 299.614 1727.38 297.603 1724.79 294.422C1720.85 289.573 1718.06 284.077 1717.46 277.362C1716.87 270.809 1718.44 263.888 1721.72 256.238C1724.1 250.684 1723.62 247.479 1722.78 245.51C1721.81 243.233 1719.73 241.114 1716.46 238.933C1715.06 238.006 1713.03 236.958 1710.31 235.639C1707.76 234.403 1704.61 232.937 1701.68 231.387C1698.73 229.83 1695.58 227.981 1692.88 225.775C1690.23 223.609 1687.44 220.644 1686.04 216.689C1681.52 203.861 1688.84 193.861 1694.81 187.889C1697.79 184.915 1700.85 181.878 1702.59 178.542C1703.39 176.993 1703.72 175.717 1703.73 174.654C1703.73 173.691 1703.48 172.48 1702.42 170.917C1699.05 165.976 1695.03 162.39 1689.12 155.848C1683.48 149.619 1677.29 141.813 1671.41 130.047C1669.15 125.529 1666.76 123.107 1664.58 121.697C1662.38 120.271 1659.87 119.538 1656.82 119.213C1653.59 118.869 1650.36 119.015 1646.3 119.074C1642.57 119.129 1638.03 119.11 1633.67 117.935C1626.18 115.92 1620.03 112.464 1616.17 107.166C1612.18 101.676 1611.42 95.2552 1612.79 89.0655C1614.61 80.8718 1621.12 77.1619 1625.84 75.0802C1628.15 74.06 1630.92 73.0723 1632.86 72.3155C1635.04 71.4643 1636.75 70.6987 1638.14 69.8321C1642.21 67.2887 1643.94 65.9829 1644.77 65.1193C1644.98 64.9055 1645.06 64.7871 1645.08 64.7482C1645.09 64.7232 1645.11 64.6588 1645.13 64.5353L1645.17 64.2618C1645.15 64.2007 1645.08 64.0718 1644.94 63.8712C1644.39 63.0996 1643.17 61.8748 1640.58 60.0284C1636.79 57.8977 1631.72 54.0766 1627.91 48.879C1623.86 43.3682 1620.73 35.5272 1623.43 26.5372C1626.59 16.0221 1634.2 10.5839 1642.84 7.75207C1650.96 5.09647 1660.88 4.43777 1670.03 3.71593C1679.08 3.00112 1695.9 1.08126 1711.5 0.326285ZM2028.3 28.63C2081.09 -4.29885 2126.56 -1.69654 2168.32 13.4425C2209.64 28.4211 2242.63 53.5983 2259.17 92.5616C2274.85 129.473 2283.45 159.441 2279.21 194.396L2279.16 194.848L2279.05 195.29C2277.54 201.414 2275.62 211.318 2274.8 220.891C2274.4 225.678 2274.28 230.201 2274.58 234.034C2274.89 238.023 2275.6 240.55 2276.32 241.851C2284.8 257.103 2284.74 270.648 2280.06 280.665C2277.94 285.214 2275.04 290.188 2272.29 297.039C2269.64 303.636 2267.86 310.405 2268.25 316.51C2268.72 323.766 2269.97 329.194 2271.04 335.71C2272.1 342.134 2272.84 348.952 2271.7 357.484C2270.04 369.969 2262.85 400.741 2259.55 414.271L2259.46 414.638L2259.34 414.993C2253.7 430.938 2230.07 464.325 2179.36 483.029C2147.57 494.759 2117.25 495.918 2094.2 493.58C2082.67 492.411 2072.87 490.358 2065.52 488.27C2061.85 487.227 2058.73 486.158 2056.26 485.156C2054.07 484.265 2051.66 483.141 2050.02 481.798C2050.03 481.808 2049.62 481.514 2048.16 480.771C2046.75 480.058 2045.22 479.332 2043.01 478.24C2038.81 476.166 2033.35 473.326 2027.33 469.28C2015.24 461.149 2001.08 448.282 1989.66 427.044C1978.33 405.965 1976.29 391.163 1977.23 379.217C1977.68 373.515 1978.82 368.538 1979.55 364.761C1980.33 360.774 1980.66 358.045 1980.33 355.453C1979.82 351.531 1977.42 349.246 1972.24 346.485C1970.21 345.403 1966.32 343.579 1963.83 342.099C1961.06 340.454 1957.47 337.901 1955.48 333.687C1953.34 329.13 1950.85 322.99 1952.12 315.385C1953.37 307.896 1957.99 300.397 1966.55 292.107C1968.19 290.516 1969.04 289.341 1969.47 288.566C1969.67 288.193 1969.76 287.941 1969.8 287.802C1969.82 287.732 1969.82 287.685 1969.83 287.659C1969.83 287.634 1969.83 287.621 1969.83 287.618C1969.83 287.615 1969.83 287.613 1969.83 287.609C1969.83 287.604 1969.83 287.588 1969.82 287.561C1969.8 287.506 1969.76 287.38 1969.65 287.175C1969.41 286.728 1968.95 286.074 1968.07 285.151C1967.2 284.231 1966.13 283.251 1964.78 282.07C1963.52 280.958 1961.95 279.61 1960.47 278.231C1957.51 275.475 1954.04 271.826 1951.92 267.039C1947.64 257.429 1950 249.494 1953.41 243.399C1954.97 240.604 1956.91 237.916 1958.27 235.922C1959.79 233.703 1960.75 232.141 1961.28 230.775C1964.21 223.232 1966.15 210.346 1956.41 198.178C1951.37 191.875 1951.4 184.281 1952.89 177.835C1954.38 171.409 1957.6 164.755 1960.88 158.765C1962.55 155.715 1964.32 152.695 1966 149.845C1967.69 146.958 1969.28 144.275 1970.7 141.744C1973.73 136.306 1975.12 132.942 1975.31 131.194C1976.68 118.4 1974.1 62.4399 2028.3 28.63ZM1270.52 14.1564C1302.32 2.42735 1332.63 1.26788 1355.68 3.60558C1367.22 4.77507 1377.01 6.82667 1384.36 8.91515C1388.03 9.95804 1391.15 11.0278 1393.62 12.0294C1395.81 12.9213 1398.22 14.045 1399.87 15.3878C1399.89 15.4029 1400.33 15.7027 1401.73 16.4152C1403.13 17.1283 1404.67 17.8542 1406.88 18.9454C1411.07 21.0199 1416.53 23.8594 1422.55 27.9054C1434.65 36.0371 1448.81 48.9033 1460.22 70.1417C1471.55 91.2212 1473.6 106.022 1472.66 117.969C1472.21 123.67 1471.06 128.648 1470.33 132.425C1469.56 136.412 1469.22 139.141 1469.55 141.733C1470.06 145.655 1472.47 147.94 1477.64 150.7C1479.67 151.782 1483.56 153.607 1486.05 155.087C1488.82 156.732 1492.42 159.285 1494.4 163.499C1496.55 168.056 1499.03 174.196 1497.76 181.801C1496.52 189.289 1491.89 196.788 1483.33 205.079C1481.69 206.67 1480.84 207.845 1480.42 208.62C1480.22 208.994 1480.13 209.245 1480.09 209.384C1480.07 209.454 1480.06 209.501 1480.06 209.526C1480.05 209.552 1480.05 209.565 1480.05 209.567C1480.05 209.57 1480.05 209.573 1480.05 209.577C1480.05 209.582 1480.06 209.597 1480.06 209.624C1480.08 209.679 1480.12 209.805 1480.23 210.011C1480.47 210.458 1480.94 211.112 1481.81 212.034C1482.68 212.954 1483.76 213.935 1485.1 215.115C1486.36 216.227 1487.94 217.576 1489.42 218.955C1492.37 221.711 1495.84 225.36 1497.97 230.147C1502.24 239.757 1499.88 247.692 1496.48 253.787C1494.92 256.582 1492.97 259.269 1491.61 261.264C1490.09 263.482 1489.14 265.044 1488.61 266.411C1485.67 273.954 1483.74 286.839 1493.47 299.007C1498.51 305.31 1498.48 312.904 1496.99 319.35C1495.51 325.776 1492.29 332.431 1489.01 338.421C1487.33 341.471 1485.57 344.491 1483.89 347.341C1482.19 350.227 1480.6 352.91 1479.19 355.441C1476.15 360.879 1474.76 364.244 1474.57 365.991C1473.2 378.786 1475.79 434.746 1421.58 468.556C1368.79 501.485 1323.32 498.882 1281.56 483.743C1240.24 468.765 1207.26 443.588 1190.71 404.624C1175.04 367.713 1166.43 337.745 1170.67 302.79L1170.72 302.338L1170.83 301.896C1172.34 295.772 1174.27 285.868 1175.08 276.295C1175.49 271.508 1175.6 266.985 1175.3 263.151C1174.99 259.163 1174.28 256.636 1173.56 255.335C1165.09 240.083 1165.14 226.537 1169.82 216.521C1171.94 211.971 1174.84 206.998 1177.59 200.147C1180.24 193.55 1182.02 186.78 1181.63 180.675C1181.16 173.419 1179.92 167.991 1178.84 161.476C1177.78 155.052 1177.04 148.233 1178.18 139.701C1179.85 127.217 1187.03 96.4447 1190.33 82.9152L1190.42 82.548L1190.54 82.1915C1196.18 66.2461 1219.81 32.8606 1270.52 14.1564ZM480.115 293.193C480.115 281.006 471.778 268.916 466.067 261.128C458.882 251.33 458.207 238.265 466.587 229.124C470.403 224.961 475.596 222.373 479.455 220.358C483.706 218.137 487.331 216.179 490.486 213.221C493.076 210.793 494.236 207.853 494.378 205.333C494.526 202.705 493.598 201.107 492.814 200.454C487.904 196.362 481.196 190.378 480.152 179.939C479.526 173.674 477.311 167.82 474.721 162.098C474.077 160.675 473.424 159.292 472.77 157.903C472.124 156.535 471.468 155.141 470.861 153.791C469.676 151.154 468.488 148.268 467.815 145.41C464.785 132.531 472.239 123.335 480.681 117.145C484.691 114.203 485.615 110.347 485.615 97.1925C485.615 93.5032 486.156 88.8787 486.774 84.2013C487.42 79.3192 488.174 74.2255 488.79 68.8937C490.054 57.9602 490.422 48.2166 488.457 41.9298C486.225 34.7857 483.565 30.6253 480.315 27.7316C476.969 24.7517 472.334 22.5169 465.024 20.3946C458.467 18.4908 444.008 17.5669 428.74 17.6925C413.509 17.8179 399.526 18.9645 394.065 20.4347C385.055 22.8605 380.003 31.3369 379.607 40.0333C379.476 42.9242 380.587 48.0143 382.581 53.9952C384.478 59.6875 386.832 65.2022 388.387 68.4679L374.844 74.9171C373.066 71.1828 370.47 65.0969 368.351 58.7394C366.328 52.6707 364.354 45.2608 364.623 39.3517C365.228 26.0481 373.176 10.5245 390.166 5.95031C397.705 3.92054 413.473 2.81714 428.616 2.6925C443.723 2.56816 460.265 3.39325 469.207 5.98937C477.397 8.36712 484.513 11.3833 490.291 16.5284C496.166 21.7596 500.007 28.5994 502.774 37.4552C505.81 47.1684 504.927 59.925 503.691 70.6163C503.058 76.0969 502.249 81.5972 501.645 86.1681C501.013 90.9436 500.615 94.6319 500.615 97.1925C500.615 109.038 500.54 121.182 489.551 129.24C482.992 134.05 481.446 137.854 482.416 141.975C482.744 143.366 483.431 145.169 484.542 147.641C485.083 148.845 485.68 150.112 486.338 151.507C486.986 152.882 487.686 154.367 488.386 155.912C491.171 162.065 494.205 169.711 495.078 178.446C495.477 182.434 497.728 185.023 502.417 188.931C512.832 197.61 511.057 214.497 500.745 224.164C495.9 228.706 490.524 231.498 486.4 233.652C481.885 236.011 479.328 237.424 477.645 239.26C475.024 242.119 474.349 247.055 478.164 252.257C483.453 259.469 495.115 275.379 495.115 293.193V441.193C495.262 450.262 490.898 470.186 471.47 479.901C460.022 485.624 442.094 488.693 425.115 488.693C416.505 488.692 407.81 487.907 399.949 486.134C392.18 484.381 384.715 481.549 379.011 477.112C367.847 468.43 364.256 457.038 363.393 446.891C362.968 441.897 363.189 437.108 363.479 433.042C363.789 428.688 364.115 425.712 364.115 423.193C364.115 417.282 365.377 386.713 366.432 354.509C367.492 322.135 368.343 288.131 367.639 273.859C367.554 273.334 367.206 272.029 366.309 270.652C365.407 269.271 364.071 267.984 362.022 267.23C356.411 265.162 351.177 261.977 347.496 257.219C343.691 252.3 341.973 246.24 342.652 239.446C343.61 229.873 351.445 225.964 355.944 223.964C358.829 222.682 360.421 222.14 362.55 221.09C364.405 220.175 365.387 219.435 365.921 218.812C368.707 215.562 369.351 214.077 369.547 212.988C369.755 211.83 369.675 209.853 368.036 205.17C367.356 203.227 366.545 201.609 365.646 199.993C364.871 198.599 363.573 196.449 362.669 194.567C361.636 192.418 360.719 189.903 360.411 186.851C360.106 183.819 360.44 180.664 361.38 177.219C363.552 169.255 368.677 164.502 374.497 161.905C379.904 159.493 385.853 158.959 390.175 158.705C394.644 158.442 399.327 158.211 403.354 157.311C407.779 156.321 408.79 155.073 408.907 154.838C409.642 153.369 409.521 152.007 409.174 151.157C409.168 151.144 409.162 151.131 409.156 151.118C407.633 150.972 406.36 150.645 405.736 150.507C404.806 150.301 403.997 150.149 402.805 150.129C400.246 150.087 395.192 150.658 384.535 154.291C371.541 158.721 361.194 156.476 354.476 150.153C351.319 147.183 349.292 143.586 348.227 140.11C347.202 136.769 346.888 132.929 347.947 129.486C348.831 126.616 349.857 122.404 352.713 117.724C355.583 113.021 360.055 108.13 367.481 102.295C378.517 93.6242 378.966 82.653 375.323 74.8732L388.908 68.5118C395.265 82.0877 393.713 100.761 376.749 114.09C370.176 119.254 367.148 122.864 365.518 125.536C363.873 128.231 363.401 130.269 362.284 133.898C362.343 133.707 362.155 134.367 362.567 135.712C362.939 136.924 363.662 138.201 364.756 139.231C366.538 140.908 370.69 143.164 379.695 140.094C391.037 136.227 397.984 135.048 403.051 135.131C405.671 135.174 407.581 135.553 408.979 135.862C410.491 136.197 410.509 136.192 410.615 136.192C417.171 136.192 421.345 141.294 423.057 145.478C424.959 150.128 425.089 156.016 422.323 161.547C418.941 168.312 411.702 170.814 406.628 171.949C401.154 173.174 395.087 173.443 391.056 173.68C386.878 173.926 383.326 174.392 380.608 175.605C378.304 176.633 376.68 178.13 375.852 181.166C375.291 183.221 375.251 184.503 375.336 185.347C375.419 186.17 375.659 186.967 376.188 188.067C376.846 189.436 377.515 190.473 378.756 192.704C379.873 194.714 381.124 197.158 382.194 200.215C384.055 205.531 385.226 210.554 384.31 215.646C383.38 220.807 380.524 224.823 377.31 228.573C374.844 231.45 371.763 233.271 369.182 234.544C366.874 235.682 363.652 236.953 362.037 237.671C357.537 239.671 357.621 240.512 357.578 240.939C357.258 244.145 358.04 246.335 359.36 248.041C360.804 249.908 363.32 251.722 367.208 253.154C377.999 257.13 381.813 266.811 382.516 271.927L382.574 272.407L382.596 272.606L382.605 272.805C383.376 287.7 382.481 322.712 381.424 355C380.354 387.671 379.115 417.603 379.115 423.193C379.115 426.423 378.693 430.572 378.44 434.109C378.168 437.934 378.014 441.801 378.339 445.619C378.975 453.096 381.383 459.955 388.22 465.273C391.515 467.835 396.613 470.004 403.25 471.501C409.796 472.978 417.35 473.692 425.115 473.693C440.886 473.693 456.209 470.761 464.762 466.484C477.21 460.26 480.246 447.041 480.117 441.362L480.115 441.277V293.193ZM294.115 39.6925C294.115 31.7618 297.691 24.6639 303.986 19.5773C289.597 19.7598 267.764 19.4395 255.912 19.1984C252.95 19.5013 248.247 20.8065 244.183 23.7306C240.195 26.599 236.818 30.9866 236.073 37.9855C234.813 49.8335 229.677 91.5427 224.491 131.654C221.896 151.727 219.283 171.443 217.13 186.87C215.023 201.964 213.265 213.666 212.373 217.086C211.685 219.723 211.046 222.913 210.266 226.692C209.507 230.368 208.639 234.472 207.543 238.525C205.449 246.269 202.133 255.45 195.616 261.281C191.939 264.571 187.669 266.189 183.228 266.057C178.994 265.93 175.342 264.24 172.534 262.296C167.143 258.564 163.015 252.611 161.5 248.065C160.361 244.646 156.486 231.147 154.48 214.33C152.494 197.67 152.206 176.69 159.13 158.964C165.832 141.806 174.436 131.809 180.377 123.928C186.137 116.287 189.212 110.97 188.63 101.66C188.361 97.354 186.978 95.6081 185.884 94.7306C184.533 93.6472 182.334 92.8791 179.089 92.6778C175.902 92.4802 172.449 92.8733 169.302 93.4015C167.731 93.6651 166.378 93.9362 165.106 94.1778C164.223 94.3457 162.493 94.6925 161.115 94.6925C161.111 94.6925 161.069 94.6928 160.975 94.6964C160.875 94.7002 160.746 94.7066 160.578 94.7159C160.219 94.7358 159.839 94.7604 159.297 94.7931C158.272 94.8549 156.943 94.9273 155.444 94.9493C152.485 94.9928 148.631 94.8471 144.685 93.9396C140.746 93.0337 136.307 91.2742 132.621 87.7921C128.807 84.188 126.334 79.2373 125.659 72.9982C124.607 63.2662 125.234 53.1015 125.178 45.5616C125.116 37.3615 124.305 31.7462 121.756 27.6671C119.268 23.6859 115.477 21.3137 110.512 19.9093C105.389 18.4605 99.5267 18.1925 93.6152 18.1925H35.6152C29.8809 18.1925 24.773 19.0257 21.1279 20.9142C17.9044 22.5842 15.6827 25.0939 15.0449 29.7169C14.8094 31.4243 15.3574 35.3533 17.5039 41.4034C19.5263 47.1035 22.597 53.682 26.2217 60.1525C29.8443 66.6191 33.9165 72.7927 37.8662 77.7208C41.9837 82.8582 45.3938 85.9091 47.5615 87.0304C52.7682 89.7235 57.5711 89.5865 64.5147 89.1446C71.2574 88.7156 80.0411 87.9945 89.7022 92.3575C99.5573 96.8083 104.661 104.033 106.062 111.874C107.373 119.219 105.295 126.244 102.627 130.913C101.558 132.785 99.9312 134.484 98.5449 135.807C97.0321 137.25 95.2134 138.79 93.2793 140.347C89.4262 143.449 84.6361 146.998 80.0596 150.438C75.3916 153.946 70.9005 157.375 67.3184 160.447C65.5305 161.981 64.074 163.338 62.9834 164.494C62.4423 165.068 62.0353 165.546 61.7432 165.929C61.5994 166.117 61.4957 166.267 61.4238 166.379C61.3514 166.492 61.3233 166.547 61.3233 166.547C58.5891 172.015 56.8606 174.345 55.8125 178.387C54.9036 181.892 54.5992 186.93 56.8809 195.829C58.9913 204.06 63.5578 210.783 68.7041 217.938C73.478 224.574 79.5641 232.51 81.46 241.673C83.1332 249.76 83.1286 256.701 81.2393 263.026C79.3505 269.35 75.7895 274.34 71.5869 278.822C69.1576 281.414 66.4763 283.399 64.1104 285.024C61.496 286.819 59.7249 287.892 57.7402 289.38C54.348 291.924 52.2741 294.325 51.4902 298.558C50.5166 303.815 51.4092 306.096 52.5264 307.758C54.1896 310.231 56.8176 312.181 61.917 316.431C63.6302 317.858 65.9457 319.263 69.2236 321.234C72.3091 323.09 76.0341 325.334 79.6533 328.145C87.12 333.944 94.2796 342.271 96.9697 355.722C99.3206 367.476 100.374 383.931 101.77 398.673C103.234 414.148 105.059 427.474 108.469 435.147C116.144 452.416 124.707 461.539 136.541 463.829C143.379 465.153 151.262 465.195 160.372 464.823C169.189 464.464 179.426 463.693 189.615 463.693C200.581 463.693 208.723 465.629 215.311 467.646C222.369 469.806 225.847 471.328 229.861 471.73C234.788 472.222 240.38 472.51 245.496 470.603C250.112 468.882 255.188 465.049 258.516 455.276C262.204 444.441 265.004 423.497 267.545 402.6C268.786 392.388 269.957 382.317 271.127 374.027C272.252 366.055 273.498 358.704 275.115 354.5C276.711 350.35 276.289 344.47 274.271 337.284C272.266 330.15 269.319 323.67 267.106 317.862C265.133 312.681 262.28 305.185 262.751 296.475C263.242 287.398 267.229 277.973 276.812 268.389C285.332 259.869 293.25 251.69 299.035 244.133C305.061 236.262 307.615 230.505 307.615 226.692C307.615 225.729 307.193 224.258 305.521 222.108C303.85 219.957 301.386 217.716 298.362 215.344C295.241 212.896 292.301 210.884 289.126 208.525C286.408 206.505 283.055 203.911 281.013 201.052C277.583 196.25 276.082 190.868 277.682 185.537C279.178 180.55 282.914 177.267 286.257 175.261C288.69 173.801 292.164 172.931 294.755 172.326C297.516 171.682 301.349 170.916 304.363 170.246C307.673 169.511 310.724 168.744 313.225 167.866C315.935 166.915 317.057 166.144 317.312 165.889C319.252 163.95 321.369 162.406 322.778 161.328C324.33 160.141 325.328 159.307 326.14 158.348C327.422 156.832 329.115 153.99 329.115 146.192V76.965L329.129 76.7384C329.232 75.0297 328.861 72.5105 327.792 70.7101C327.313 69.9039 326.759 69.343 326.112 68.963C325.485 68.5944 324.428 68.1925 322.615 68.1925C312.758 68.1924 305.394 63.9701 300.651 58.0861C296.108 52.4483 294.115 45.4983 294.115 39.6925ZM885.575 8.82531C891.46 8.54838 903.314 8.97432 929.262 11.2198C954.805 13.4304 981.87 12.8194 1007.02 12.505C1031.76 12.1957 1055.21 12.1441 1072.22 15.8653C1108 23.6926 1119.32 49.2939 1124.54 61.8077C1129.81 74.4581 1130.24 79.7683 1141.03 90.9982C1146.65 96.8527 1153.13 102.89 1157.68 111.495C1162.39 120.38 1164.88 131.484 1164.61 147.814C1164.36 163.489 1163.6 176.601 1158.97 191.703C1154.37 206.702 1146.09 223.234 1131.44 246.224C1117.17 268.621 1114.35 280.537 1115.2 288.729C1115.63 292.835 1117.03 296.557 1119.25 300.805C1120.37 302.958 1121.66 305.155 1123.11 307.624C1124.54 310.048 1126.13 312.719 1127.7 315.601C1131.3 322.198 1132.59 328.471 1131.12 334.543C1129.72 340.348 1126.06 344.703 1122.64 348.085C1120.9 349.806 1119.01 351.483 1117.24 353.047C1115.42 354.658 1113.68 356.193 1112 357.827C1109.31 360.438 1106.95 363.129 1105.11 366.186C1106.12 366.003 1107.25 365.773 1108.48 365.498C1111.02 364.93 1113.76 364.234 1116.74 363.491C1119.66 362.762 1122.77 361.999 1125.83 361.364C1131.6 360.165 1138.5 359.114 1144.22 360.365C1149.47 361.514 1153.84 363.891 1156.75 367.811C1159.61 371.671 1160.32 376.052 1160.24 379.802C1160.15 383.507 1159.28 387.144 1158.38 390.158C1157.52 393.043 1156.34 396.222 1155.73 398.064C1152.37 408.137 1144.27 422.149 1134.42 431.995C1132.83 433.585 1132.5 435.348 1133.36 441.686C1134.1 447.141 1135.79 456.107 1131.32 465.046C1127.79 472.107 1123.77 477.885 1116.73 481.583C1110.13 485.044 1101.78 486.182 1090.96 486.685L1090.61 486.7L1090.25 486.684L1018.25 483.184C1012.98 482.935 1000.93 479.5 997.819 466.43C996.48 460.807 994.968 452.232 995.244 442.969C995.519 433.754 997.587 423.205 1004.04 414.293C1009.61 406.608 1016.65 399.525 1021.48 394.168C1024.04 391.338 1025.96 389.022 1027.23 387.056C1028.58 384.977 1028.62 384.153 1028.62 384.193C1028.62 381.375 1027.8 380.01 1027.29 379.467C1026.86 379.017 1026.14 378.566 1024.65 378.673C1024.85 378.659 1024.23 378.702 1022.55 379.799C1021.02 380.796 1019.32 382.193 1017.42 383.848C1015.7 385.346 1013.56 387.291 1011.81 388.704C1010.89 389.441 1009.84 390.231 1008.75 390.889C1007.8 391.466 1006.12 392.375 1004.05 392.634C1002.61 392.814 999.809 393.008 997.103 391.456C993.877 389.606 992.768 386.525 992.446 384.354C992.154 382.383 992.358 380.348 992.601 378.691C992.861 376.911 993.288 374.844 993.794 372.566C994.724 368.379 996.565 357.294 995.944 347.873C995.626 343.046 994.717 339.708 993.581 337.911C993.09 337.135 992.702 336.878 992.493 336.776C992.309 336.685 991.784 336.475 990.569 336.631C987.791 336.987 986.333 338.097 985.278 339.606C984.013 341.417 983.052 344.266 982.56 348.291C981.529 356.708 982.821 365.837 983.11 373.925C983.611 387.957 984.31 411.699 969.332 433.889L969.162 434.14L968.972 434.377C969.114 434.2 965.94 439.512 970.164 451.129C974.144 462.075 971.335 470.749 966.278 476.725C961.667 482.174 955.546 484.986 953.161 486.046C951.012 487.001 946.691 487.986 941.634 488.749C936.235 489.564 929.146 490.252 920.988 490.318C904.727 490.448 883.829 488.109 863.553 479.038L863.143 478.855L862.757 478.623C859.407 476.613 849.3 472.193 838.615 472.193C834.513 472.193 830.565 471.785 827.49 470.222C825.795 469.36 823.97 467.945 822.813 465.696C821.633 463.401 821.585 461.086 821.94 459.261C822.554 456.108 824.524 453.592 825.63 452.276C826.917 450.743 828.43 449.271 829.312 448.389C830.428 447.274 832.803 445.101 835.341 442.725C838.007 440.229 841.151 437.235 844.197 434.129C847.267 430.999 850.112 427.879 852.233 425.132C853.293 423.759 854.085 422.591 854.618 421.65C855.195 420.631 855.254 420.25 855.229 420.389C856.389 413.817 856.085 401.965 867.115 393.693C873.416 388.967 873.349 385.428 873.188 384.623C873.1 384.49 872.906 384.202 872.541 383.721C871.859 382.823 870.95 381.715 869.76 380.268C867.458 377.468 864.39 373.74 861.435 369.442C855.672 361.059 849.391 349.195 850.649 335.982C852.883 312.53 863.714 299.013 874.69 287.514C876.609 285.504 877.863 283.997 878.663 282.889C878.555 282.819 878.441 282.746 878.319 282.668C878.245 282.647 878.128 282.618 877.963 282.584C877.375 282.465 876.522 282.363 875.312 282.286C874.112 282.21 872.781 282.17 871.225 282.124C869.715 282.08 868.021 282.031 866.3 281.93C862.92 281.731 858.935 281.312 855.182 280.089C851.363 278.844 847.28 276.599 844.426 272.428C840.846 267.196 837.669 260.997 837.492 253.75C837.31 246.298 840.314 239.081 846.372 231.868C849.837 227.743 854.579 224.503 859.108 221.838C863.605 219.192 868.827 216.6 873.081 214.327C877.607 211.909 881.313 209.718 883.993 207.466C886.682 205.206 887.528 203.556 887.725 202.418C887.901 201.396 887.903 200.75 887.871 200.38C887.796 200.362 887.708 200.343 887.605 200.324C886.633 200.15 885.204 200.17 883.483 200.424C881.833 200.668 880.296 201.068 879.271 201.376C878.911 201.484 878.135 201.837 876.602 202.696C875.366 203.388 873.443 204.526 871.725 205.366C870.121 206.151 867.468 207.328 864.538 207.386C862.909 207.418 860.948 207.114 859.039 206.01C857.101 204.889 855.765 203.261 854.907 201.546C853.334 198.4 853.373 195.217 853.662 192.83C853.944 190.505 854.607 187.96 855.157 185.788C856.326 181.175 857.615 175.946 857.615 169.192C857.615 161.179 859.052 148.6 859.692 138.528C860.03 133.211 860.179 128.371 859.948 124.419C859.698 120.136 859.051 118.15 858.716 117.603C857.6 115.777 856.106 113.81 854.266 111.477C852.516 109.258 850.417 106.664 848.549 104.015C844.909 98.8532 840.891 91.8213 841.646 83.5128C842.161 77.8488 842.858 73.0599 844.793 68.3038C846.731 63.5403 849.692 59.3339 853.879 54.3614L854.685 53.4044L854.957 53.2403C855.124 52.9314 855.367 52.4122 855.631 51.628C856.353 49.4793 857.115 45.6964 857.115 39.6925C857.115 29.5123 860.737 22.2404 865.45 17.4386C869.629 13.1809 874.51 11.0283 877.899 10.3771C878.17 10.2506 878.458 10.1185 878.623 10.0519C880.472 9.30406 882.595 8.96553 885.575 8.82531ZM548.615 8.1925C556.93 8.1925 596.298 7.69248 635.925 8.005C655.77 8.16151 675.814 8.52239 692.246 9.255C700.457 9.62108 707.84 10.083 713.88 10.6681C719.73 11.2348 724.898 11.9652 728.333 13.0284C748.697 19.3315 792.344 29.9577 816.569 70.8712C840.133 110.668 842.467 154.469 831.692 185.176C826.383 200.307 820.594 208.929 816.431 215.427C812.402 221.714 810.615 225.008 810.615 230.692V230.863L810.607 231.033C810.499 233.417 811.404 240.525 815.877 245.892C818.417 248.94 820.069 252.205 820.642 255.698C821.217 259.211 820.6 262.325 819.615 264.885C818.672 267.336 817.333 269.418 816.355 270.884C815.189 272.633 814.674 273.345 814.323 274.047C813.222 276.249 812.775 277.661 812.802 279.049C812.826 280.301 813.268 282.53 816.035 286.088C818.765 289.598 822.063 291.443 827.151 295.393C831.819 299.016 837.161 304.038 838.958 312.663C840.396 319.566 840.127 326.833 840.302 335.924C840.484 345.404 841.088 358.457 844.034 378.594C844.712 382.591 844.528 388.438 841.86 394.033C838.966 400.103 833.371 405.367 824.333 407.493C816.059 409.44 810.56 411.539 806.966 414.211C803.773 416.585 801.771 419.636 801.04 424.753C799.166 437.874 797.488 465.449 767.233 476.721C753.455 481.854 743.756 483.078 729.388 482.88C722.424 482.784 714.206 482.353 703.954 481.897C693.634 481.437 681.025 480.94 664.999 480.692C632.644 480.19 605.404 482.555 581.53 482.88C569.93 483.038 559.286 482.689 550.117 481.071C540.963 479.457 532.613 476.469 526.177 470.837C514.289 460.435 511.097 448.707 511.886 438.135C512.625 428.235 516.926 419.503 518.703 415.282C520.037 412.114 521.907 409.313 523.572 406.978C525.409 404.402 526.809 402.629 528.198 400.486C530.731 396.581 531.621 393.77 530.822 390.443C530.187 387.798 529.58 386.517 529.222 385.921C528.943 385.458 528.739 385.266 528.356 384.965C528.218 384.856 526.279 383.509 524.963 382.056C523.274 380.191 522.119 377.938 521.369 375.125C520.537 372.005 520.562 368.105 520.726 364.728C520.901 361.113 521.314 356.988 521.716 353.003C522.572 344.511 523.284 337.104 522.685 332.706C521.985 327.573 521.18 325.719 520.422 324.609C519.53 323.304 518.176 322.17 514.181 319.24C509.775 316.009 506.027 311.782 505.577 306.236C505.123 300.633 508.255 296.447 510.812 293.89C512.308 292.395 514.133 291.066 515.55 290.053C517.148 288.91 518.444 288.018 519.665 287.036C521.594 285.485 522.027 284.699 522.11 284.539C522.064 283.152 521.394 281.589 519.706 277.332C518.194 273.52 516.286 268.251 516.626 261.799C516.947 255.703 518.637 251.172 521.469 247.244C523.877 243.903 527.382 240.82 529.812 238.39C535.566 232.636 537.001 229.613 536.244 225.575C535.958 224.049 534.778 222.213 531.741 219.236C531.031 218.541 530.288 217.844 529.479 217.087C528.69 216.349 527.829 215.546 526.99 214.728C525.332 213.112 523.487 211.183 521.949 208.962C519.161 204.935 517.312 200.624 516.842 196.017C516.366 191.354 517.359 186.935 519.407 182.839L519.565 182.533C521.235 179.406 524.028 177.253 525.937 175.9C527.038 175.121 528.2 174.373 529.249 173.702C530.345 173.002 531.328 172.38 532.288 171.731C536.68 168.76 537.115 167.385 537.115 166.692C537.115 165.639 536.59 164.222 532.991 161.748C531.237 160.542 529.458 159.546 527.242 158.209C525.31 157.044 522.787 155.471 520.812 153.496C518.246 150.93 515.1 147.49 513.625 143.065C511.951 138.044 512.756 132.955 515.604 127.972C518.254 123.333 521.769 120.433 523.375 118.827C524.903 117.299 526.038 115.915 526.862 112.784C528.663 105.942 526.585 99.0772 523.229 93.6232C517.032 83.553 521.057 70.4804 532.143 67.4571C534.844 66.7204 538.429 65.6387 541.295 64.1564C542.725 63.4167 543.612 62.7581 544.074 62.2843C544.107 62.2507 544.135 62.2195 544.159 62.1925C544.169 61.8324 544.148 61.5948 544.129 61.4542C544.033 61.3829 543.878 61.2763 543.642 61.1359C543.053 60.7871 542.406 60.4728 541.262 59.9005C540.568 59.5536 532.445 56.5659 526.619 51.6984C523.482 49.0778 520.328 45.4671 518.627 40.6378C516.876 35.6674 516.912 30.098 519.062 24.1456L519.211 23.7316L519.407 23.339C522.503 17.1469 532.157 8.19256 548.615 8.1925ZM2163.21 27.5441C2124.98 13.6831 2084.45 11.2854 2036.24 41.3566C1989.44 70.5467 1991.85 117.587 1990.23 132.792C1989.66 138.045 1986.62 143.992 1983.79 149.054C1982.28 151.773 1980.58 154.638 1978.92 157.454C1977.24 160.307 1975.58 163.147 1974.03 165.972C1970.88 171.731 1968.51 176.89 1967.51 181.213C1966.51 185.517 1967.17 187.61 1968.12 188.808C1982.39 206.64 1979.33 225.754 1975.26 236.211C1974.04 239.344 1972.18 242.158 1970.65 244.393C1968.97 246.851 1967.63 248.694 1966.5 250.712C1964.53 254.242 1963.89 257.058 1965.62 260.947C1966.49 262.911 1968.15 264.887 1970.69 267.256C1971.96 268.439 1973.24 269.527 1974.69 270.806C1976.07 272.016 1977.58 273.38 1978.96 274.835C1981.59 277.613 1984.83 281.857 1984.83 287.618C1984.83 293.406 1981.59 298.424 1976.99 302.88C1969.55 310.089 1967.42 314.839 1966.92 317.851C1966.43 320.746 1967.2 323.357 1969.05 327.3C1969.07 327.339 1969.42 327.974 1971.49 329.2C1973.84 330.595 1975.7 331.332 1979.3 333.25C1985.37 336.489 1993.71 341.955 1995.21 353.533C1995.87 358.691 1995.08 363.462 1994.28 367.615C1993.43 371.979 1992.55 375.784 1992.18 380.395C1991.5 389.073 1992.71 401.022 2002.88 419.943C2012.96 438.704 2025.3 449.838 2035.7 456.831C2040.93 460.348 2045.73 462.852 2049.65 464.793C2051.51 465.71 2053.5 466.66 2054.96 467.401C2056.34 468.107 2058.12 469.048 2059.52 470.189C2059.25 469.971 2059.78 470.394 2061.91 471.26C2063.77 472.016 2066.36 472.915 2069.62 473.841C2076.13 475.69 2085.06 477.576 2095.71 478.656C2117.04 480.819 2144.97 479.727 2174.17 468.956C2220.63 451.821 2240.79 421.939 2245.08 410.313C2248.48 396.338 2255.31 366.907 2256.83 355.502C2257.7 349.034 2257.18 343.853 2256.24 338.151C2255.32 332.542 2253.82 325.72 2253.28 317.476C2252.68 308.081 2255.4 298.851 2258.37 291.447C2261.24 284.299 2265.09 277.272 2266.47 274.321C2268.8 269.338 2269.74 260.883 2263.21 249.136C2260.93 245.037 2260 239.967 2259.63 235.199C2259.24 230.275 2259.41 224.879 2259.86 219.62C2260.73 209.349 2262.74 198.909 2264.37 192.176C2268.02 161.304 2260.62 134.352 2245.37 98.4249C2230.91 64.3884 2201.89 41.5654 2163.21 27.5441ZM1354.17 18.5294C1332.85 16.3672 1304.91 17.4579 1275.71 28.2286C1229.27 45.3587 1209.1 75.2271 1204.81 86.8614C1201.41 100.831 1194.57 130.276 1193.05 141.684C1192.19 148.152 1192.7 153.333 1193.64 159.034C1194.57 164.644 1196.07 171.466 1196.6 179.71C1197.21 189.105 1194.49 198.335 1191.51 205.738C1188.64 212.887 1184.79 219.914 1183.41 222.864C1181.09 227.848 1180.15 236.302 1186.67 248.05C1188.95 252.149 1189.89 257.218 1190.26 261.986C1190.64 266.911 1190.47 272.307 1190.03 277.566C1189.15 287.836 1187.15 298.275 1185.51 305.008C1181.86 335.88 1189.26 362.833 1204.52 398.761C1218.97 432.797 1247.99 455.62 1286.67 469.642C1324.91 483.503 1365.44 485.9 1413.65 455.829C1460.44 426.639 1458.03 379.599 1459.66 364.394C1460.22 359.141 1463.27 353.193 1466.09 348.132C1467.61 345.413 1469.3 342.548 1470.96 339.732C1472.64 336.879 1474.3 334.039 1475.85 331.214C1479.01 325.455 1481.38 320.296 1482.38 315.973C1483.37 311.669 1482.72 309.575 1481.76 308.378C1467.49 290.546 1470.56 271.431 1474.63 260.974C1475.84 257.841 1477.7 255.027 1479.23 252.793C1480.91 250.335 1482.25 248.491 1483.38 246.473C1485.35 242.943 1485.99 240.128 1484.26 236.238C1483.39 234.275 1481.73 232.299 1479.19 229.93C1477.92 228.747 1476.65 227.658 1475.19 226.379C1473.82 225.169 1472.3 223.805 1470.92 222.351C1468.29 219.573 1465.05 215.328 1465.05 209.567C1465.05 203.779 1468.3 198.762 1472.9 194.306C1480.34 187.097 1482.47 182.345 1482.97 179.334C1483.45 176.439 1482.68 173.829 1480.83 169.886C1480.81 169.848 1480.47 169.213 1478.4 167.985C1476.05 166.591 1474.18 165.853 1470.59 163.935C1464.51 160.695 1456.17 155.23 1454.68 143.652C1454.01 138.494 1454.8 133.723 1455.6 129.569C1456.45 125.206 1457.34 121.402 1457.7 116.791C1458.38 108.113 1457.18 96.1636 1447.01 77.2433C1436.93 58.482 1424.58 47.348 1414.18 40.3546C1408.95 36.8382 1404.16 34.3338 1400.23 32.3927C1398.38 31.4761 1396.38 30.5262 1394.92 29.7843C1393.54 29.0793 1391.76 28.1374 1390.37 26.9972C1390.63 27.2149 1390.1 26.7918 1387.97 25.9259C1386.11 25.1697 1383.52 24.2706 1380.26 23.3448C1373.75 21.4959 1364.83 19.6099 1354.17 18.5294ZM638.462 286.198L638.943 286.238L639.625 286.327C641.238 286.57 642.997 287.031 644.46 287.421C646.344 287.923 648.248 288.454 650.379 288.95C654.625 289.939 659.099 290.617 663.437 290.223C669.602 289.662 680.413 289.781 690.886 293.107C701.424 296.453 712.721 303.469 717.247 317.37C725.338 342.22 711.76 367.835 687.531 369.181C677.861 369.718 671.444 368.899 666.758 368.4C662.152 367.908 660.139 367.873 657.611 368.765C653.028 370.382 647.353 371.614 642.719 370.571C640.257 370.017 636.483 368.391 634.877 364.121C633.395 360.18 634.756 356.47 636.012 354.137C636.39 353.435 637.119 351.491 637.816 348.264C638.481 345.191 639.023 341.395 639.252 337.276C639.716 328.932 638.844 320.121 635.852 313.441C634.283 310.455 632.144 305.995 630.803 302.12C630.173 300.301 629.42 297.794 629.379 295.435C629.36 294.367 629.438 291.958 631.041 289.705C633.021 286.922 636.013 286.063 638.462 286.198ZM1290.12 155.192C1290.12 145.729 1294.11 138.451 1301.5 135.155C1307.9 132.297 1315.18 133.24 1320.97 135.552L1321.53 135.78L1322.3 136.105L1322.97 136.59C1325.28 138.24 1329.7 142.171 1332.84 147.585C1335.64 143.787 1339.74 140.825 1344.08 139.18C1349.11 137.273 1355.7 136.71 1361.55 140.305C1365.73 142.882 1370.94 147.168 1374.64 155.354C1378.24 163.332 1380.15 174.418 1379.1 190.192C1378.04 206.071 1375.12 213.099 1374.2 216.762C1373.88 218.065 1373.95 218.299 1374.09 218.751C1374.39 219.766 1375.27 221.595 1377.89 225.577C1383.57 234.235 1385.7 241.479 1382.97 248.435C1381.81 251.391 1379.94 253.704 1378.71 255.226C1377.3 256.964 1376.4 258.044 1375.65 259.369C1374.67 261.114 1374.32 264.021 1374.9 270.533C1375.42 276.397 1376.62 284.754 1376.62 294.193C1376.62 304.242 1374.15 316.698 1369.75 327.516C1365.53 337.913 1358.66 348.91 1348.48 353.122C1340.74 356.325 1330.02 359.417 1318.93 355.828C1307.53 352.139 1297.86 342.138 1290.64 323.96C1283.56 306.11 1282.25 294.255 1283.34 283.848C1283.87 278.848 1284.94 274.344 1285.87 270.234C1286.83 266.042 1287.7 262.073 1288.15 257.464C1289.98 238.725 1285.43 228.76 1279.83 221.96C1275.83 217.109 1272.68 211.59 1273.2 204.571C1273.68 198.136 1277.2 191.917 1282.06 185.268C1286.4 179.327 1288.22 175.251 1289.12 171.331C1290.08 167.131 1290.12 162.664 1290.12 155.192ZM647.758 303.737C648.074 304.392 648.389 305.028 648.694 305.626L649.244 306.683L649.35 306.883L649.443 307.089C653.899 316.891 654.762 328.514 654.229 338.109C653.957 342.99 653.313 347.569 652.478 351.434C652.218 352.633 651.928 353.817 651.609 354.955C651.939 354.851 652.276 354.741 652.619 354.62C658.592 352.512 663.579 352.976 668.349 353.484C673.037 353.985 678.37 354.667 686.699 354.204C698.471 353.55 708.893 340.164 702.983 322.014C700.51 314.416 694.307 309.932 686.346 307.403C678.318 304.854 669.628 304.722 664.794 305.161C658.482 305.735 652.517 304.803 647.758 303.737ZM2073.27 192.993C2073.27 182.944 2075.74 170.488 2080.13 159.67C2084.36 149.272 2091.22 138.275 2101.4 134.063C2109.14 130.86 2119.86 127.769 2130.95 131.358C2142.36 135.047 2152.02 145.048 2159.24 163.226C2166.33 181.076 2167.63 192.931 2166.54 203.338C2166.02 208.338 2164.95 212.841 2164.01 216.95C2163.05 221.143 2162.18 225.113 2161.73 229.722C2159.91 248.461 2164.46 258.426 2170.06 265.226C2174.05 270.077 2177.21 275.595 2176.69 282.613C2176.21 289.049 2172.68 295.269 2167.82 301.918C2163.48 307.859 2161.66 311.935 2160.77 315.855C2159.81 320.055 2159.77 324.522 2159.77 331.993C2159.77 341.456 2155.77 348.733 2148.39 352.029C2141.77 354.98 2134.24 353.881 2128.36 351.405L2127.59 351.081L2126.91 350.596C2124.6 348.946 2120.18 345.015 2117.04 339.6C2114.25 343.397 2110.14 346.361 2105.8 348.006C2100.78 349.913 2094.18 350.476 2088.34 346.881C2084.15 344.303 2078.95 340.018 2075.25 331.832C2071.64 323.854 2069.73 312.768 2070.79 296.994C2071.84 281.115 2074.76 274.087 2075.68 270.424C2076.01 269.12 2075.93 268.887 2075.8 268.435C2075.49 267.419 2074.61 265.59 2072 261.608C2066.32 252.95 2064.18 245.706 2066.91 238.751C2068.07 235.795 2069.94 233.482 2071.17 231.96C2072.58 230.222 2073.49 229.142 2074.23 227.817C2075.21 226.072 2075.56 223.165 2074.99 216.652C2074.47 210.789 2073.27 202.432 2073.27 192.993ZM2773.34 171.045C2779.26 169.162 2786.95 167.744 2793.87 171.151C2801.27 174.8 2805.14 182.538 2806.54 192.66C2807.92 202.583 2806.95 209.119 2806.73 213.279C2806.62 215.318 2806.68 216.653 2806.98 217.931C2807.27 219.185 2807.89 220.791 2809.4 223.095C2812.1 227.239 2813.45 232.207 2814.21 236.878C2814.99 241.624 2815.27 246.731 2815.42 251.507C2815.59 256.484 2815.63 260.881 2815.88 265.065C2816.13 269.258 2816.56 272.306 2817.23 274.32C2818.07 276.83 2819.26 279.429 2820.58 282.164C2821.8 284.692 2823.31 287.68 2824.3 290.243C2824.81 291.565 2825.32 293.109 2825.58 294.72C2825.83 296.283 2825.96 298.518 2825.08 300.851C2822.87 306.714 2817.08 307.692 2813.62 307.693C2807.43 307.693 2803.35 306.609 2799.97 305.911C2796.86 305.267 2793.57 304.735 2787.67 305.172C2780.62 305.694 2768.7 305.43 2760.01 298.956C2755.35 295.484 2751.87 290.398 2750.63 283.563C2749.43 276.953 2750.4 269.204 2753.53 260.224L2753.58 260.091L2753.63 259.959L2760.62 262.693C2753.77 260.012 2753.63 259.959 2753.63 259.956C2753.63 259.956 2753.63 259.954 2753.63 259.952C2753.64 259.95 2753.64 259.946 2753.64 259.943C2753.64 259.938 2753.64 259.931 2753.65 259.924C2753.65 259.909 2753.66 259.892 2753.67 259.871C2753.68 259.831 2753.7 259.779 2753.73 259.717C2753.78 259.593 2753.85 259.426 2753.94 259.222C2754.11 258.814 2754.36 258.252 2754.69 257.573C2755.34 256.224 2756.3 254.376 2757.57 252.342C2759.94 248.548 2763.79 243.453 2769.27 240.054C2769.4 239.637 2769.52 238.866 2769.42 237.789C2769.19 235.423 2768.05 232.942 2766.24 231.387C2764 229.474 2762.69 226.904 2761.87 224.808C2760.99 222.57 2760.36 220.053 2759.93 217.5C2759.05 212.384 2758.79 206.38 2759.13 200.567C2759.47 194.792 2760.42 188.763 2762.23 183.72C2763.84 179.225 2766.99 173.066 2773.34 171.045ZM2787.24 184.608C2785.81 183.904 2783.08 183.731 2778.18 185.25C2778.05 185.395 2777.28 186.174 2776.35 188.774C2775.19 192.027 2774.39 196.529 2774.1 201.442C2773.82 206.317 2774.06 211.157 2774.71 214.963C2775.04 216.871 2775.44 218.334 2775.83 219.336C2776.03 219.838 2776.18 220.106 2776.24 220.214C2781.26 224.645 2783.82 230.818 2784.35 236.37C2784.83 241.444 2783.72 248.949 2777.42 252.656C2774.69 254.263 2772.21 257.21 2770.29 260.292C2769.37 261.758 2768.68 263.099 2768.21 264.062C2767.98 264.539 2767.82 264.915 2767.71 265.155C2767.68 265.229 2767.66 265.29 2767.64 265.337C2765.07 272.759 2764.81 277.706 2765.39 280.884C2765.93 283.86 2767.26 285.65 2768.97 286.928C2773.03 289.954 2780.12 290.691 2786.56 290.213C2794.16 289.65 2798.88 290.367 2803.01 291.223C2805.23 291.681 2806.96 292.094 2808.85 292.365C2808.34 291.29 2807.75 290.082 2807.07 288.689C2805.72 285.892 2804.16 282.554 2803 279.064C2801.67 275.078 2801.17 270.377 2800.9 265.961C2800.64 261.535 2800.58 256.463 2800.43 252.003C2800.28 247.341 2800.02 243.042 2799.41 239.304C2798.78 235.49 2797.88 232.895 2796.83 231.289C2794.59 227.844 2793.14 224.636 2792.38 221.344C2791.61 218.075 2791.61 215.129 2791.75 212.481C2792.03 207.266 2792.81 202.801 2791.69 194.724C2790.59 186.846 2788.21 185.084 2787.24 184.608ZM1023.24 135.192C1026.98 134.9 1031.04 136.525 1033.86 140.224C1036.71 143.967 1037.84 149.171 1037.61 155.47C1037.43 160.394 1039.9 168.645 1043.46 177.088C1046.96 185.382 1050.68 191.945 1051.62 193.192C1052.88 194.885 1054.32 197.498 1054.2 200.751C1054.07 204.412 1052.05 207.136 1049.72 208.796C1047.61 210.304 1045.11 211.082 1042.82 211.525C1040.42 211.987 1037.67 212.192 1034.62 212.192C1028.57 212.192 1023.57 211.495 1018.43 210.891C1013.27 210.284 1007.46 209.692 999.115 209.692C994.663 209.692 990.75 209.514 987.543 208.849C984.306 208.177 980.702 206.789 978.188 203.486C975.748 200.283 975.353 196.585 975.347 193.772C975.341 190.948 975.76 187.609 976.172 184.274L976.185 184.173L976.199 184.073C976.846 179.789 977.723 172.943 978.239 166.437C978.498 163.18 978.657 160.102 978.665 157.519C978.673 154.765 978.499 153.152 978.339 152.512C977.736 150.101 977.272 147.069 978.107 144.061C979.111 140.448 981.606 138.1 984.444 136.839C986.841 135.774 989.485 135.47 991.602 135.333C993.833 135.189 996.449 135.192 999.115 135.192H1023.24ZM668.932 123.85C672.281 123.684 676.139 123.531 680.06 123.632C687.473 123.824 696.942 124.921 703.763 130.306C709.859 135.119 715.591 143.538 718.17 153.117C720.809 162.918 720.298 174.63 712.681 185.104C705.098 195.53 695.112 199.136 685.77 200.033C681.229 200.469 676.809 200.276 672.934 199.984C668.75 199.668 665.805 199.306 662.815 199.187C656.714 198.943 649.614 198.253 644.487 194.486C638.206 189.872 636.991 182.627 638.21 175.007C639.343 167.926 640.844 164.498 642.079 161.874C642.637 160.688 642.783 160.357 642.896 159.955C642.983 159.648 643.115 159.043 643.115 157.692V143.536L643.122 143.38C643.243 140.475 644.066 136.143 646.43 132.278C648.981 128.108 653.611 124.193 660.615 124.192C662.745 124.192 665.438 124.023 668.932 123.85ZM999.115 150.192C996.624 150.192 994.722 150.195 993.182 150.268C993.575 152.541 993.672 155.14 993.665 157.563C993.656 160.668 993.466 164.159 993.191 167.623C992.648 174.476 991.739 181.592 991.055 186.149C990.605 189.791 990.343 192.067 990.347 193.738C990.347 193.873 990.352 193.996 990.355 194.106C990.429 194.123 990.507 194.144 990.592 194.161C992.202 194.496 994.818 194.692 999.115 194.692C1008.27 194.692 1014.71 195.351 1020.18 195.994C1025.67 196.64 1029.66 197.192 1034.62 197.192C1035.3 197.192 1035.93 197.177 1036.51 197.152C1034.43 193.401 1031.91 188.287 1029.64 182.922C1026.08 174.49 1022.3 163.491 1022.62 154.915C1022.71 152.486 1022.47 151.015 1022.25 150.192H999.115ZM2631.62 288.693C2631.62 296.137 2631.42 306.375 2628.1 315.456C2624.58 325.071 2617.44 333.617 2604.22 336.518C2598.84 337.699 2594.39 338.386 2590.78 338.923C2587.02 339.484 2584.65 339.826 2582.77 340.32C2581.07 340.769 2580.44 341.188 2580.07 341.517C2579.67 341.876 2578.97 342.695 2578.1 344.925C2577.56 346.313 2577.6 346.932 2577.62 347.068C2577.59 346.961 2577.61 347.27 2578.55 347.953C2579.55 348.691 2581.07 349.464 2583.28 350.387C2584.36 350.835 2585.48 351.272 2586.72 351.754C2587.92 352.224 2589.23 352.736 2590.53 353.28C2595.1 355.209 2602.61 358.176 2607 366.506C2611.23 374.528 2611.82 385.918 2608.47 402.663C2606.91 410.445 2606.29 416.51 2605.61 422.018C2604.95 427.364 2604.2 432.64 2602.11 437.687C2597.73 448.266 2588.33 455.955 2569.31 466.72C2529.77 489.09 2476.34 496.693 2443.62 496.693C2435.9 496.693 2427.89 497.205 2419.81 497.724C2411.85 498.235 2403.75 498.757 2396.3 498.692C2388.9 498.627 2381.55 497.988 2375.18 495.896C2368.66 493.754 2362.73 489.933 2359.06 483.335C2353.4 473.139 2352.45 466.184 2353.3 459.284C2354.13 452.465 2355.58 449.81 2355.13 442.66C2354.74 436.345 2352.81 435.17 2352.27 434.854C2350.79 433.989 2349.18 434.001 2345.44 433.661C2343.09 433.448 2340.48 432.732 2338.23 430.903C2335.91 429.017 2334.73 426.565 2334.19 424.285C2333.26 420.343 2334.05 415.781 2334.76 412.222C2335.61 407.966 2333.23 397.555 2321.38 393.851C2312.34 391.027 2301.87 385.186 2294.88 376.161C2287.57 366.735 2284.34 354.088 2290.14 339.432C2296.08 324.431 2308.36 318.752 2316.43 314.871C2320.85 312.744 2323.37 311.448 2324.92 309.97C2325.86 309.081 2326.4 308.247 2326.16 305.998C2325.81 302.764 2324.85 301.579 2324.31 301.073C2323.63 300.436 2322.47 299.854 2320.32 299.418C2319.26 299.204 2318.11 299.053 2316.79 298.904C2315.59 298.769 2314.01 298.613 2312.63 298.409C2310.33 298.072 2305.47 297.298 2302.31 293.442C2299.17 289.605 2297.09 284.848 2297.8 279.347C2298.48 274.144 2301.5 269.699 2305.31 265.889C2305.42 265.777 2306.33 264.574 2304.99 261.066C2304.41 259.546 2303.53 258.072 2302.57 256.897C2301.55 255.657 2300.74 255.128 2300.47 255.002C2296.28 253.068 2294.14 249.388 2293.1 246.17C2292.07 242.969 2291.85 239.442 2292 236.168C2292.29 229.586 2294.17 222.201 2296.72 216.237C2296.99 215.604 2297.22 214.683 2296.73 210.901C2296.28 207.416 2295.25 201.644 2294.58 193.835C2293.2 177.846 2293.14 152.222 2300.21 107.521L2300.21 107.5L2300.21 107.479C2303.89 85.0524 2325.62 37.0678 2383.21 17.588C2418.44 5.67154 2451.48 4.63187 2477.74 7.93859C2503.75 11.2137 2523.76 18.8454 2532.82 24.9825C2547.14 34.6804 2592.07 54.4268 2605.41 110.455C2611.65 136.671 2614.58 152.95 2614.98 163.143C2615.19 168.2 2614.82 172.602 2613.36 176.193C2611.68 180.309 2608.77 182.859 2605.31 184.192C2600.43 186.068 2596.88 185.935 2591.49 185.617C2586.19 185.305 2577.88 184.692 2562.12 184.692C2554.26 184.692 2546.91 184.937 2540.12 185.164C2533.39 185.389 2527.09 185.602 2521.61 185.504C2516.2 185.407 2511.01 185.009 2506.64 183.777C2502.25 182.539 2497.58 180.128 2494.98 175.186C2492.86 171.165 2487.47 163.418 2480.76 156.877C2477.43 153.633 2473.99 150.901 2470.69 149.068C2467.35 147.213 2464.65 146.549 2462.58 146.678C2454.88 147.159 2448.72 148.204 2443.25 151.658C2437.87 155.053 2432.21 161.41 2427.1 174.435C2416.87 200.469 2421.04 210.298 2422.6 234.204C2424.14 257.788 2422.71 270.119 2414.05 284.551C2412.9 286.456 2411.51 290.459 2410.75 296.099C2410.01 301.58 2409.96 308.019 2411.02 314.48C2413.14 327.445 2419.49 339.462 2432.67 345.343C2447.03 351.75 2457.61 350.298 2465.07 346.735C2472.88 343.01 2478.09 336.575 2480.53 332.101C2482.9 327.753 2484.62 321.279 2485.63 314.301C2486.63 307.436 2486.85 300.805 2486.63 296.586C2486.29 290.284 2488.12 284.572 2489.36 280.793C2489.74 279.64 2490.04 278.731 2490.28 277.969C2488.77 278.063 2486.78 278.278 2484.08 278.629C2477.09 279.542 2469.1 278.585 2462.54 274.156C2455.66 269.507 2451.43 261.749 2451.12 251.419C2450.83 241.927 2453.01 233.589 2455.02 226.415C2457.12 218.944 2458.91 213.074 2459.12 206.934C2459.23 203.689 2460.24 200.378 2462.82 197.817C2465.27 195.387 2468.25 194.531 2470.45 194.193C2472.65 193.857 2474.88 193.919 2476.56 193.996C2478.52 194.086 2479.76 194.192 2481.12 194.192C2485.89 194.192 2510.61 195.075 2535.37 195.506C2547.9 195.724 2560.59 195.832 2571.14 195.67C2581.99 195.503 2589.78 195.05 2593.06 194.356C2602.52 192.349 2610.97 193.732 2615.56 200.686C2619.46 206.586 2618.51 213.823 2617.36 218.125C2616.43 221.639 2615.18 227.116 2614.79 233.062C2614.39 239.096 2614.92 244.978 2616.98 249.672C2618.2 252.448 2619.62 255.062 2621.16 257.802C2622.65 260.451 2624.37 263.392 2625.87 266.37C2629 272.549 2631.62 279.613 2631.62 288.693ZM2687.12 202.692C2687.12 206.931 2685.5 211.153 2683.84 214.576C2682.11 218.166 2679.85 221.816 2677.71 225.095C2675.42 228.616 2673.54 231.326 2671.83 234.047C2671.02 235.327 2670.4 236.38 2669.96 237.229C2669.47 238.155 2669.4 238.482 2669.42 238.379C2669.23 239.224 2669.19 240.36 2669.3 242.288C2669.4 243.877 2669.68 246.663 2669.63 249.149C2669.57 251.872 2669.15 255.1 2667.55 258.375C2665.92 261.704 2663.34 264.554 2659.78 266.933C2654.86 270.208 2651.26 273.872 2650.05 277.004C2649.55 278.318 2649.53 279.374 2649.87 280.428C2650.26 281.588 2651.33 283.46 2654.3 285.836C2663.02 292.814 2668.02 301.47 2669.06 309.762C2670.08 317.941 2667.09 326.802 2658.66 330.546C2656.5 331.506 2654.02 333.579 2651.63 336.322C2649.53 338.729 2647.89 341.199 2646.98 342.788C2642.92 354.328 2642.23 358.417 2642.53 362.305C2642.7 364.48 2643.2 366.83 2644.11 370.651C2644.99 374.375 2646.19 379.195 2647.48 385.749C2650.33 400.308 2647.3 414.852 2643.1 426.7C2638.88 438.615 2633.22 448.494 2630.19 453.8L2630.19 453.799L2630.13 453.911L2630.13 453.913C2628.65 456.506 2625.71 460.864 2623.92 463.795C2621.73 467.374 2620.2 470.367 2619.62 472.574C2619.57 472.781 2619.53 472.958 2619.5 473.109C2619.83 473.2 2620.28 473.3 2620.9 473.381C2622.61 473.606 2625.16 473.636 2628.8 473.237C2645.53 471.407 2664.42 472.462 2680.3 473.393C2688.37 473.866 2695.61 474.306 2701.72 474.389C2708.02 474.475 2712.22 474.149 2714.55 473.482C2715.98 473.075 2718.37 471.534 2721.5 468.007C2724.48 464.653 2727.5 460.234 2730.33 455.399C2736.01 445.717 2740.44 435.286 2742.04 430.715C2744.31 424.226 2749.08 420.577 2753.67 418.774C2757.81 417.151 2762.02 416.899 2765.02 417.193H2844.12C2845.51 417.193 2850.6 416.909 2855.09 419.046C2857.6 420.243 2860.02 422.197 2861.73 425.183C2863.4 428.095 2864.12 431.496 2864.12 435.193C2864.12 438.692 2863.34 443.115 2862.75 446.871C2862.1 450.976 2861.51 455.07 2861.43 459.035C2861.26 466.963 2863.1 472.426 2868.82 475.67C2876.24 479.881 2887.65 481.438 2900.98 481.193C2914.05 480.954 2927.74 479.027 2938.96 477.281C2949.88 475.583 2954.38 473.504 2957.33 470.431C2960.66 466.973 2963.12 461.242 2966.96 448.955C2968.66 443.502 2968.6 440.858 2968.21 439.343C2967.85 437.918 2966.94 436.381 2964.11 433.664C2958.52 428.302 2947.09 420.084 2934.1 402.678C2907.57 367.118 2914.94 338.765 2925.31 328.389C2928.32 325.384 2930.32 322.004 2930.71 319.617C2930.87 318.628 2930.71 318.119 2930.53 317.792C2930.33 317.433 2929.66 316.513 2927.47 315.502C2920.52 312.295 2914.51 308.495 2910.39 302.748C2906.18 296.861 2904.62 289.889 2904.62 281.693C2904.62 277.418 2905.21 273.523 2905.72 270.262C2906.27 266.83 2906.69 264.26 2906.74 261.732C2906.83 257.522 2905.91 253.098 2899.81 246.996C2892.28 239.466 2887.62 233.978 2885.03 228.797C2882.2 223.128 2882.12 218.356 2882.12 213.692C2882.12 210.136 2883.09 206.818 2884.08 204.109C2884.99 201.597 2886.39 198.456 2887.22 196.393C2889.23 191.405 2889.85 188.243 2888.97 185.467C2888.11 182.778 2886.28 181.183 2883.35 180.11C2880.19 178.952 2876.39 178.692 2873.12 178.692C2870.89 178.692 2859.97 179.709 2850.77 178.434C2846 177.772 2840.61 176.415 2836.12 173.428C2831.31 170.226 2827.73 165.239 2827.14 158.333C2826.68 152.897 2827.41 147.995 2829.48 143.726C2831.56 139.44 2834.73 136.319 2838.27 134.059C2844.99 129.766 2853.65 128.254 2860.55 127.268C2864.63 126.686 2868.15 126.658 2871.02 126.726C2874.21 126.801 2875.72 126.929 2877.19 126.833C2877.28 126.827 2877.36 126.819 2877.43 126.812C2877.54 126.535 2877.67 126.123 2877.8 125.53C2877.92 125.005 2877.94 123.764 2876.89 121.438C2875.86 119.158 2874.13 116.537 2871.85 113.647C2869.6 110.785 2867.04 107.95 2864.51 105.161C2862.1 102.496 2859.52 99.6849 2857.66 97.2482C2855.48 94.4065 2853.84 91.1488 2853.36 87.5509C2852.85 83.8189 2853.66 80.2162 2855.61 77.0616C2859.26 71.1649 2866.32 67.6155 2874.12 65.463C2879.29 64.0364 2881.07 61.2979 2881.51 59.8546C2881.66 59.384 2881.7 59.0714 2881.7 58.8751C2878.68 57.4505 2875.74 54.8048 2873.39 52.547C2870.7 49.965 2867.62 46.7031 2864.61 43.6046C2858.24 37.0416 2851.88 30.9164 2846.07 27.8038C2843.85 26.6141 2839.73 25.519 2833.56 24.7433C2827.6 23.9935 2820.51 23.626 2812.87 23.4405C2798.07 23.081 2780.5 23.4346 2768.16 22.6788C2756.12 21.9419 2749.64 22.6641 2745.7 24.0694C2742.32 25.2732 2740.34 27.1275 2737.86 30.8527C2736.96 32.1888 2736.88 33.7299 2738.31 39.2482C2739.46 43.6901 2741.95 51.6156 2738.51 59.6466C2736.98 63.2101 2734.94 66.0285 2732.09 68.0763C2729.4 70.0006 2726.54 70.8226 2724.51 71.3712C2720.52 72.447 2716.87 73.1475 2711.69 77.1368C2708.74 79.4037 2707.1 83.1541 2706.62 87.9991C2706.16 92.5328 2706.85 97.1027 2707.64 99.9718L2707.79 100.522L2707.9 100.885L2707.98 101.256C2710.62 114.818 2704.74 124.926 2696.28 131.213C2688.22 137.194 2677.78 139.898 2669.37 140.188C2662.92 140.41 2656.66 141.749 2651.65 144.023C2646.59 146.317 2643.38 149.278 2641.89 152.417C2640.41 155.511 2640.4 159.61 2642.44 163.053C2644.35 166.268 2648.68 169.895 2657.79 170.724C2670.19 171.85 2678.44 176.17 2682.99 183.483C2687.15 190.178 2687.12 197.941 2687.12 202.692ZM2088.27 192.993C2088.27 201.554 2089.32 208.448 2089.93 215.334C2090.48 221.571 2090.82 228.915 2087.31 235.17C2085.8 237.844 2083.95 240.015 2082.83 241.401C2081.53 243.005 2081.09 243.692 2080.87 244.235C2080.86 244.281 2079.72 246.037 2084.54 253.378C2087.18 257.395 2089.17 260.817 2090.16 264.114C2091.32 267.974 2090.97 271.116 2090.23 274.062C2089.02 278.898 2086.69 283.872 2085.75 297.992C2084.8 312.218 2086.65 320.633 2088.92 325.654C2091.09 330.469 2093.89 332.683 2096.2 334.106C2096.86 334.51 2098.26 334.824 2100.48 333.981C2102.72 333.131 2104.52 331.54 2105.29 330.214C2106.29 328.493 2107.46 326.73 2108.77 325.207C2109.97 323.812 2111.84 321.957 2114.4 320.95C2117.56 319.709 2121.3 319.988 2124.36 322.47C2126.81 324.448 2128.1 327.269 2128.88 329.621C2129.48 331.424 2130.67 333.306 2132.12 335.024C2133.2 336.299 2134.26 337.289 2135 337.9C2138.24 339.084 2140.88 338.954 2142.28 338.331C2142.9 338.053 2143.39 337.645 2143.8 336.928C2144.24 336.144 2144.77 334.647 2144.77 331.993C2144.77 324.965 2144.73 318.682 2146.15 312.507C2147.62 306.051 2150.55 300.126 2155.71 293.068C2160.35 286.717 2161.58 283.436 2161.73 281.497C2161.83 280.141 2161.48 278.409 2158.48 274.761C2150.08 264.561 2144.63 250.525 2146.8 228.265C2147.35 222.623 2148.42 217.843 2149.39 213.613C2150.37 209.301 2151.21 205.711 2151.62 201.774C2152.41 194.306 2151.71 184.91 2145.3 168.761C2139.02 152.939 2131.93 147.44 2126.33 145.629C2120.43 143.718 2113.9 145.125 2107.14 147.923C2102.82 149.711 2097.93 155.714 2094.03 165.316C2090.3 174.498 2088.27 185.042 2088.27 192.993ZM552.115 166.692C552.115 176 544.801 181.375 540.692 184.154C539.528 184.942 538.339 185.695 537.325 186.343C536.265 187.02 535.38 187.593 534.606 188.141C533.161 189.164 532.791 189.646 532.781 189.634C531.864 191.499 531.618 193.054 531.765 194.494C531.92 196.012 532.57 197.951 534.282 200.424C534.994 201.453 536.024 202.587 537.46 203.986C538.168 204.676 538.909 205.369 539.726 206.133C540.521 206.877 541.388 207.688 542.24 208.524C545.453 211.672 549.774 216.337 550.987 222.811C553.23 234.773 546.665 242.75 540.419 248.996C536.849 252.566 535.103 253.983 533.637 256.017C532.594 257.464 531.785 259.184 531.605 262.587C531.445 265.635 532.286 268.365 533.649 271.803C534.774 274.638 537.115 279.621 537.115 284.693C537.115 291.739 532.018 296.35 529.066 298.725C527.412 300.055 525.582 301.319 524.274 302.254C522.785 303.319 521.924 303.991 521.419 304.496C521.156 304.759 520.959 304.981 520.814 305.159C521.189 305.605 521.868 306.278 523.051 307.145C526.555 309.714 530.2 312.332 532.809 316.151C535.551 320.166 536.747 324.813 537.547 330.68C538.447 337.282 537.41 346.875 536.641 354.507C536.23 358.584 535.861 362.303 535.708 365.454C535.544 368.842 535.694 370.629 535.862 371.26C535.974 371.678 536.067 371.909 536.119 372.019C536.157 372.051 536.218 372.103 536.315 372.179C536.448 372.282 536.589 372.387 536.823 372.562C537.035 372.719 537.322 372.933 537.624 373.17C538.991 374.244 540.601 375.741 542.072 378.184C543.463 380.494 544.543 383.338 545.408 386.943C547.61 396.115 544.249 403.305 540.782 408.65C539.172 411.132 537.134 413.796 535.784 415.689C534.262 417.822 533.193 419.522 532.527 421.104C530.304 426.383 527.356 432.401 526.845 439.251C526.384 445.428 527.943 452.45 536.055 459.548C539.618 462.666 544.955 464.929 552.723 466.299C560.475 467.666 569.989 468.035 581.326 467.881C603.327 467.581 633.087 465.195 665.231 465.693C681.456 465.945 694.222 466.449 704.621 466.911C715.087 467.377 722.933 467.789 729.594 467.881C742.475 468.058 750.275 467.031 761.997 462.664C782.742 454.935 784.065 437.51 786.19 422.632C787.459 413.749 791.459 407.05 798.016 402.174C804.171 397.597 812.172 394.945 820.897 392.892C825.46 391.818 827.364 389.583 828.32 387.577C829.448 385.212 829.509 382.533 829.236 381.034L829.213 380.907L829.194 380.778C826.142 359.923 825.497 346.23 825.305 336.212C825.104 325.803 825.335 320.819 824.273 315.723C823.57 312.348 821.661 310.119 817.954 307.242C814.668 304.692 808.465 300.787 804.195 295.297C799.963 289.856 797.906 284.585 797.805 279.337C797.706 274.225 799.508 270.137 800.907 267.339C801.806 265.541 803.166 263.627 803.875 262.564C804.773 261.217 805.308 260.299 805.615 259.5C805.881 258.81 805.888 258.425 805.839 258.125C805.787 257.806 805.563 256.946 804.354 255.494C796.916 246.569 795.434 235.569 795.616 230.532C795.657 220.311 799.601 213.888 803.801 207.334C807.887 200.957 812.847 193.578 817.538 180.209C826.764 153.916 825.098 114.716 803.662 78.5138C782.887 43.4274 745.534 34.0545 723.897 27.3575C722.082 26.7958 718.298 26.1658 712.434 25.5978C706.759 25.0481 699.664 24.6008 691.578 24.2403C675.417 23.5198 655.586 23.161 635.807 23.005C596.184 22.6925 557.301 23.1925 548.615 23.1925C538.598 23.1926 534.026 28.1602 532.992 29.756C532.095 32.515 532.32 34.3602 532.775 35.6544C533.309 37.1685 534.436 38.6824 536.236 40.1866C540.285 43.5691 544.663 44.8313 547.97 46.4845C549.469 47.234 552.874 48.745 555.342 51.4484C558.362 54.7565 559.463 58.9647 559.094 63.7677C558.794 67.6646 556.854 70.6639 554.812 72.757C552.806 74.8143 550.381 76.3444 548.187 77.4796C543.803 79.7471 538.887 81.1656 536.089 81.9288C535.947 81.9677 535.607 82.1347 535.401 82.7374C535.222 83.2628 535.114 84.3179 536.003 85.7618C540.647 93.3078 544.568 104.444 541.368 116.602C539.692 122.971 536.828 126.587 533.981 129.434C531.213 132.203 529.976 133.052 528.627 135.414C527.997 136.517 527.827 137.198 527.78 137.537C527.74 137.829 527.764 138.046 527.855 138.321C528.13 139.146 528.986 140.457 531.419 142.89C531.944 143.415 532.984 144.155 534.989 145.364C536.711 146.403 539.244 147.844 541.489 149.388C545.89 152.413 552.115 157.746 552.115 166.692ZM658.115 157.692C658.115 160.091 657.873 162.111 657.335 164.023C656.823 165.839 656.093 167.322 655.651 168.261C654.886 169.887 653.888 171.959 653.021 177.377C652.623 179.865 652.794 181.175 652.961 181.761C653.075 182.161 653.178 182.259 653.368 182.399C653.718 182.656 654.561 183.098 656.366 183.477C658.152 183.851 660.456 184.08 663.415 184.198C666.676 184.329 670.793 184.78 674.062 185.026C677.64 185.296 681.064 185.416 684.336 185.102C690.618 184.499 696.133 182.355 700.55 176.281C704.932 170.255 705.422 163.466 703.686 157.017C701.89 150.346 697.871 144.766 694.468 142.079C691.789 139.964 686.758 138.81 679.672 138.627C676.343 138.541 672.95 138.669 669.674 138.831C666.543 138.986 663.235 139.192 660.615 139.192C660.107 139.193 659.941 139.304 659.888 139.338C659.776 139.409 659.53 139.607 659.226 140.106C658.915 140.613 658.633 141.29 658.424 142.07C658.228 142.801 658.141 143.466 658.115 143.918V157.692ZM1305.12 155.192C1305.12 162.221 1305.15 168.504 1303.74 174.679C1302.26 181.134 1299.33 187.058 1294.17 194.117C1289.53 200.468 1288.3 203.749 1288.16 205.689C1288.06 207.045 1288.4 208.777 1291.41 212.425C1299.81 222.625 1305.25 236.661 1303.08 258.921C1302.53 264.562 1301.46 269.343 1300.5 273.572C1299.51 277.885 1298.67 281.475 1298.26 285.412C1297.48 292.88 1298.17 302.275 1304.59 318.425C1310.87 334.247 1317.95 339.746 1323.55 341.557C1329.46 343.468 1335.99 342.06 1342.75 339.263C1347.07 337.475 1351.95 331.471 1355.85 321.869C1359.58 312.687 1361.62 302.143 1361.62 294.193C1361.62 285.631 1360.56 278.738 1359.96 271.852C1359.41 265.614 1359.06 258.271 1362.58 252.016C1364.08 249.342 1365.93 247.171 1367.05 245.784C1368.35 244.181 1368.8 243.494 1369.01 242.95C1369.03 242.906 1370.16 241.149 1365.34 233.808C1362.71 229.79 1360.71 226.368 1359.72 223.071C1358.56 219.211 1358.92 216.069 1359.65 213.123C1360.86 208.287 1363.19 203.313 1364.13 189.193C1365.08 174.967 1363.24 166.553 1360.97 161.531C1358.79 156.717 1356 154.503 1353.68 153.08C1353.03 152.675 1351.62 152.362 1349.4 153.205C1347.16 154.055 1345.37 155.646 1344.59 156.972C1343.59 158.693 1342.42 160.456 1341.12 161.979C1339.92 163.374 1338.05 165.228 1335.48 166.235C1332.32 167.477 1328.58 167.198 1325.52 164.716C1323.08 162.738 1321.78 159.917 1321 157.565C1320.4 155.762 1319.22 153.879 1317.77 152.162C1316.69 150.886 1315.62 149.896 1314.88 149.285C1311.64 148.101 1309 148.232 1307.61 148.855C1306.98 149.133 1306.49 149.541 1306.09 150.258C1305.64 151.042 1305.12 152.539 1305.12 155.192ZM1851.62 56.1925C1851.62 60.5832 1850.03 64.6435 1848.22 67.9835C1846.39 71.3849 1843.99 74.6497 1841.67 77.5568C1839.4 80.3992 1836.82 83.3649 1834.91 85.6681C1832.8 88.1973 1831.4 90.0351 1830.65 91.3693C1830.42 91.7813 1830.07 92.7893 1830.02 95.1915C1829.97 97.6175 1830.21 100.405 1830.47 104.234C1830.98 111.543 1831.46 121.2 1828.3 131.83C1826.64 137.437 1824 141.99 1820.27 145.184C1816.47 148.442 1812.05 149.843 1807.72 149.941C1799.52 150.125 1791.83 145.709 1786.99 141.164C1783.92 138.286 1781.89 134.633 1780.43 131.239C1778.96 127.814 1777.85 124.112 1776.9 120.816C1775.91 117.345 1775.13 114.42 1774.21 111.817C1773.35 109.373 1772.62 107.98 1772.06 107.255C1771.87 107.169 1771.22 106.916 1769.73 106.778C1767.41 106.565 1764.33 106.748 1760.66 107.199C1756.96 107.654 1753.37 108.278 1749.61 108.837C1746.2 109.345 1742.33 109.855 1739.2 109.681C1736.18 109.513 1733.17 108.85 1730.53 107.21C1727.74 105.477 1726 103.046 1725 100.482C1724.08 98.1054 1723.8 95.663 1723.69 93.6769C1723.58 91.7089 1723.62 89.497 1723.62 87.6925C1723.62 83.1986 1725.66 79.5293 1729.04 77.1486C1731.89 75.137 1735.32 74.3097 1738.08 73.8546C1740.98 73.3775 1744.25 73.157 1747.31 72.965C1750.5 72.7648 1753.63 72.5887 1756.79 72.2384C1761.54 71.7104 1764.07 69.6795 1765.33 67.6056C1766.67 65.415 1767.16 62.2177 1765.97 58.4669C1764.96 55.2892 1763.97 54.9689 1761.17 52.4083C1759.59 50.9564 1757.64 48.8523 1756.47 45.5236C1755.37 42.3748 1755.22 38.851 1755.66 34.8644C1756.37 28.4848 1755.73 26.4186 1754.94 25.1671C1753.89 23.4817 1751.57 21.5542 1744.87 17.6886C1743.21 16.7314 1739.4 15.7589 1733.07 15.298C1727.07 14.861 1719.85 14.94 1712.23 15.3087C1696.83 16.0537 1681.15 17.8839 1671.21 18.6691C1661.35 19.4472 1653.53 20.0387 1647.51 22.0079C1642.04 23.8011 1639.15 26.3631 1637.8 30.8478C1636.9 33.8577 1637.68 36.8502 1640 40.006C1642.24 43.0532 1645.42 45.5081 1647.73 46.8429L1648.18 47.0948L1648.57 47.3058L1648.93 47.5607C1654.97 51.8123 1661.14 57.4468 1660.06 66.1232C1659.62 69.5995 1658.35 72.6349 1655.58 75.5157C1653.29 77.902 1650.02 80.0966 1646.09 82.5528C1643.48 84.1863 1640.69 85.3582 1638.31 86.2882C1635.69 87.3126 1633.83 87.9501 1631.89 88.8048C1628.11 90.4729 1627.62 91.5134 1627.44 92.3195C1626.81 95.1296 1627.3 96.9589 1628.31 98.3439C1629.45 99.9208 1632.05 101.965 1637.57 103.45C1639.7 104.025 1642.34 104.131 1646.08 104.076C1649.5 104.026 1654.02 103.829 1658.41 104.297C1662.98 104.784 1667.97 106.02 1672.74 109.109C1677.53 112.216 1681.58 116.857 1684.82 123.338C1689.94 133.572 1695.25 140.266 1700.24 145.787C1704.95 150.994 1710.68 156.409 1714.81 162.468C1717.5 166.404 1718.75 170.569 1718.72 174.746C1718.7 178.824 1717.46 182.454 1715.89 185.468C1712.88 191.257 1707.94 195.97 1705.42 198.496C1700.39 203.524 1698.72 207.524 1700.19 211.696C1700.29 211.991 1700.75 212.839 1702.37 214.157C1703.93 215.435 1706.07 216.742 1708.68 218.123C1711.31 219.51 1714.01 220.764 1716.84 222.137C1719.51 223.426 1722.42 224.879 1724.78 226.452C1729 229.271 1733.92 233.402 1736.58 239.625C1739.36 246.156 1739.13 253.701 1735.51 262.147C1732.79 268.497 1732.11 272.827 1732.4 276.023C1732.67 279.057 1733.88 281.812 1736.44 284.963C1737.1 285.782 1738.22 286.646 1740.3 287.705C1742.75 288.952 1744.57 289.592 1748.03 291.207C1754.13 294.05 1761.61 298.425 1765.96 308.124C1768.17 313.048 1768.71 317.815 1767.81 322.335C1766.94 326.718 1764.82 330.31 1762.65 333.168C1760.52 335.966 1758 338.481 1756.11 340.411C1754.01 342.562 1752.73 343.968 1751.98 345.167C1751.56 345.834 1751.09 347.123 1750.82 349.378C1750.55 351.581 1750.52 354.097 1750.55 356.923C1750.58 359.529 1750.67 362.697 1750.5 365.37C1750.35 367.673 1749.95 371.688 1747.54 374.797C1744.39 378.838 1739.93 379.169 1737.21 378.929C1734.78 378.715 1731.99 377.885 1730.32 377.443C1726.12 376.329 1723.26 375.934 1720.57 377.086C1720 377.329 1719.63 377.547 1719.39 377.71C1720.13 379.394 1723 382.805 1729.81 386.667C1743.6 394.477 1751.43 408.803 1753.99 415.658C1756.06 419.644 1758.52 425.774 1757.59 431.675C1757.03 435.18 1755.26 438.681 1751.72 441.114C1748.41 443.388 1744.34 444.193 1740.12 444.193C1734.78 444.193 1732.08 445.647 1730.75 446.841C1729.37 448.07 1728.72 449.676 1728.59 451.268C1728.38 454.024 1728.47 461.172 1731.16 466.635C1732.41 469.188 1734.06 471.027 1736.23 472.117C1738.38 473.2 1741.89 473.968 1747.67 472.833C1762.54 469.913 1772.12 470.259 1781.49 472.007C1785.93 472.835 1790.38 473.995 1794.89 475.081C1799.49 476.19 1804.55 477.324 1810.76 478.279C1823.42 480.227 1831.12 480.055 1836.17 478.791C1840.77 477.641 1843.54 475.505 1846.2 472.088C1849.96 467.25 1848.88 458.976 1842.64 452.322C1839.78 449.262 1837.31 447.981 1835.24 446.888C1834.72 446.616 1834 446.236 1833.34 445.827C1832.7 445.435 1831.66 444.744 1830.72 443.688C1829.65 442.5 1828.67 440.807 1828.44 438.631C1828.22 436.601 1828.73 434.895 1829.22 433.738L1829.41 433.318C1831.48 429.074 1835.86 427.979 1837.46 427.638C1839.73 427.154 1842.26 427.068 1844.37 427.068C1846.52 427.068 1848.86 427.169 1850.7 427.228C1852.73 427.292 1854.09 427.301 1854.94 427.224C1854.89 427.228 1855.19 427.196 1855.87 426.977C1856.5 426.773 1857.29 426.46 1858.18 426.03C1859.98 425.159 1861.89 423.936 1863.49 422.473C1866.7 419.533 1867.65 416.783 1866.55 413.715C1865.66 411.203 1864.59 409.756 1863.52 408.774C1862.4 407.749 1860.9 406.882 1858.62 406.056C1856.25 405.196 1853.49 404.528 1849.85 403.647C1846.33 402.797 1842.2 401.795 1837.74 400.308C1827.25 396.811 1819.2 387.844 1818.04 378.282C1817.43 373.197 1818.82 367.731 1823.24 363.688C1827.45 359.823 1833.4 358.193 1840.12 358.193C1851.53 358.193 1855.84 357.779 1857.8 357.291C1859.01 356.987 1857.96 357.348 1860.69 355.47C1860.7 355.458 1860.7 355.447 1860.71 355.435C1861.05 354.798 1861.5 353.8 1862.05 352.371C1863.2 349.37 1864.27 346.033 1865.74 341.912C1867.1 338.133 1868.74 333.894 1870.72 330.454C1871.71 328.728 1872.96 326.882 1874.56 325.338C1876.16 323.796 1878.53 322.145 1881.69 321.75L1882.25 321.67C1883.64 321.448 1885.51 320.991 1887.33 320.285C1889.53 319.434 1890.89 318.51 1891.48 317.858C1891.49 317.851 1891.49 317.843 1891.5 317.836C1891.2 317.065 1889.94 314.965 1885.59 311.675C1874.27 303.117 1869.13 294.373 1868.39 285.703C1867.69 277.388 1871.28 270.858 1873.01 267.637C1875.79 262.483 1880.62 259.221 1884.14 257.02C1888.23 254.462 1890.87 253.095 1892.94 251.26C1893 251.128 1893.24 250.649 1893.45 249.552C1893.77 247.867 1893.89 245.556 1893.81 242.667C1893.63 236.691 1892.7 230.468 1892.15 224.371C1891.13 213.177 1895.87 205.035 1899.55 201.664L1899.71 201.513L1899.89 201.371C1914.25 189.7 1919.66 176.305 1922.97 165.918C1923.42 164.485 1923.71 161.537 1923.55 156.939C1923.4 152.569 1922.88 147.483 1922.23 142.237C1921.58 136.933 1920.84 131.867 1920.22 127.123C1919.63 122.646 1919.12 118.271 1919.12 115.192C1919.12 108.4 1921.39 102.99 1923.97 97.838C1926.62 92.5392 1929.56 87.5108 1932.67 79.8693C1936.41 70.666 1941.23 64.7081 1946.75 59.3224C1949.4 56.7447 1952.31 54.2007 1955.13 51.6612C1958.02 49.0651 1961.02 46.2969 1964.22 42.9864C1970.87 36.0825 1972.88 31.8536 1973 29.2931C1973.07 27.6432 1972.37 24.6156 1965.41 19.9015C1963.11 18.3411 1958.82 17.0236 1952.26 16.3312C1945.91 15.6616 1938.39 15.6603 1930.37 15.9982C1922.37 16.3353 1914.16 16.995 1906.41 17.5851C1898.78 18.1661 1891.45 18.6925 1885.62 18.6925C1874.37 18.6925 1866.47 18.7167 1860.47 19.7159C1854.79 20.6633 1851.97 22.315 1850.04 24.797C1848.61 26.6366 1848.05 30.1104 1848.92 36.6388C1849.34 39.7302 1849.93 42.7231 1850.52 46.1261C1851.07 49.3029 1851.62 52.8631 1851.62 56.1925ZM309.115 39.6925C309.115 42.3867 310.124 45.9367 312.33 48.6739C314.338 51.1647 317.473 53.1924 322.615 53.1925C331.419 53.1925 337.378 57.4762 340.688 63.0499C343.623 67.99 344.294 73.5518 344.115 77.3409V146.192C344.115 156.395 341.808 163.053 337.591 168.037C335.652 170.328 333.525 171.994 331.89 173.244C330.112 174.604 328.98 175.436 327.919 176.496C325.174 179.241 321.358 180.908 318.193 182.019C314.819 183.203 311.057 184.124 307.617 184.889C303.881 185.719 301.027 186.265 298.163 186.934C296.833 187.244 295.77 187.523 294.956 187.779C294.055 188.063 293.839 188.206 293.975 188.124C292.317 189.118 292.053 189.835 292.049 189.848C292.048 189.85 292.046 189.854 292.046 189.874C292.045 189.896 292.045 189.98 292.082 190.142C292.158 190.474 292.41 191.202 293.219 192.333C293.676 192.974 295.072 194.255 298.073 196.485C300.617 198.376 304.365 200.989 307.619 203.541C310.97 206.169 314.568 209.303 317.365 212.902C320.163 216.502 322.615 221.156 322.615 226.692C322.615 235.88 317.169 245.123 310.945 253.252C304.481 261.695 295.899 270.516 287.419 278.996C280.003 286.412 277.989 292.487 277.729 297.285C277.45 302.449 279.098 307.204 281.124 312.523C282.912 317.215 286.466 325.235 288.711 333.226C290.942 341.165 292.519 351.035 289.115 359.885C288.232 362.181 287.167 367.705 285.979 376.123C284.837 384.224 283.694 394.06 282.436 404.41C279.976 424.638 277.027 447.444 272.716 460.109C268.043 473.836 259.869 481.253 250.735 484.657C242.102 487.875 233.443 487.163 228.369 486.655C222.384 486.057 216.111 483.578 210.92 481.989C205.258 480.256 198.649 478.693 189.615 478.693C179.805 478.693 170.541 479.422 160.983 479.812C151.719 480.19 142.352 480.232 133.69 478.556C114.524 474.846 103.087 459.969 94.7617 441.238C90.1718 430.911 88.2462 414.987 86.836 400.087C85.3563 384.454 84.4099 369.409 82.2608 358.663C80.4509 349.614 75.8604 344.191 70.4522 339.99C67.6341 337.802 64.6409 335.982 61.4922 334.088C58.5359 332.31 55.1012 330.276 52.3145 327.954C48.4139 324.704 43.2908 320.904 40.0791 316.127C36.3216 310.539 35.215 304.069 36.7412 295.827C38.4574 286.56 43.6328 281.211 48.7402 277.38C51.0055 275.681 53.7972 273.91 55.6201 272.658C57.6916 271.236 59.323 269.971 60.6436 268.563C63.941 265.045 65.8809 262.035 66.8672 258.734C67.8529 255.434 68.0982 251.124 66.7715 244.712C65.6674 239.376 62.0033 234.31 56.5274 226.697C51.4238 219.602 45.2402 210.825 42.3506 199.556C39.6324 188.955 39.577 181.242 41.293 174.623C42.8699 168.541 46.1416 163.369 47.9072 159.838C48.9584 157.736 50.5554 155.81 52.0703 154.203C53.6613 152.516 55.5518 150.779 57.5527 149.063C61.5487 145.635 66.4024 141.939 71.0469 138.447C75.7826 134.888 80.2731 131.561 83.8731 128.663C85.6654 127.22 87.1164 125.979 88.1914 124.953C89.3931 123.807 89.6729 123.35 89.6035 123.472C90.9355 121.141 91.8583 117.665 91.2949 114.511C90.8202 111.852 89.1731 108.577 83.5283 106.027C77.6898 103.391 72.4738 103.668 65.4668 104.114C58.6605 104.548 49.9631 105.161 40.6699 100.355C35.5877 97.7259 30.5602 92.5892 26.1621 87.1017C21.5963 81.4049 17.0746 74.5157 13.1348 67.4825C9.19702 60.4531 5.73542 53.0939 3.3672 46.4191C1.12323 40.0944 -0.57879 33.2106 0.18556 27.6681C1.54785 17.7915 7.07642 11.3008 14.2276 7.59582C20.9573 4.10933 28.8498 3.19252 35.6152 3.1925H93.6152C99.7037 3.1925 107.342 3.42462 114.594 5.4757C122.003 7.57129 129.464 11.6992 134.476 19.7179C139.426 27.6386 140.114 37.0237 140.178 45.4484C140.246 54.5334 139.624 62.619 140.572 71.3868C140.898 74.3972 141.925 75.947 142.923 76.8898C144.05 77.9544 145.736 78.7888 148.047 79.3204C153.2 80.5056 157.677 79.6925 161.115 79.6925C160.738 79.6925 160.806 79.7267 162.307 79.4415C163.419 79.2301 165.039 78.9074 166.819 78.6085C170.375 78.0117 175.142 77.4048 180.018 77.7071C184.835 78.006 190.541 79.2381 195.269 83.0294C200.253 87.0269 203.12 93.031 203.601 100.725C204.519 115.415 198.845 124.348 192.355 132.957C186.046 141.326 178.899 149.579 173.102 164.421C167.526 178.695 167.486 196.715 169.375 212.555C171.245 228.237 174.87 240.738 175.73 243.32C175.91 243.858 176.486 245.051 177.558 246.478C178.598 247.863 179.837 249.109 181.072 249.964C182.327 250.832 183.206 251.049 183.676 251.063C183.937 251.07 184.542 251.063 185.614 250.104C188.597 247.435 191.033 242.116 193.063 234.609C194.029 231.038 194.818 227.33 195.575 223.661C196.311 220.097 197.046 216.412 197.858 213.299C198.466 210.968 200.084 200.482 202.273 184.796C204.417 169.442 207.023 149.782 209.615 129.731C214.804 89.5929 219.918 48.0521 221.157 36.3995C222.413 24.5986 228.452 16.5686 235.423 11.5538C242.17 6.70023 249.774 4.64397 255.005 4.21691L255.387 4.18664L255.771 4.19445C272.203 4.53326 306.169 4.97531 314.437 4.22375C317.93 3.90613 321.257 4.15368 324.136 4.94543C326.714 5.65454 330.136 7.14072 332.23 10.2823C333.402 12.0389 334.152 14.3564 333.795 16.9454C333.45 19.4497 332.184 21.3815 330.866 22.7198C328.418 25.2065 324.898 26.6029 321.435 27.4689C312.078 29.8081 309.115 35.3025 309.115 39.6925ZM872.115 39.6925C872.115 46.8881 871.211 52.3551 869.85 56.4064C869.169 58.4314 868.345 60.1917 867.394 61.6593C866.764 62.6298 865.929 63.703 864.85 64.6261C861.381 68.8032 859.702 71.4624 858.688 73.9562C857.622 76.5749 857.069 79.5357 856.584 84.8712C856.339 87.5628 857.572 90.7818 860.808 95.3702C862.377 97.5959 864.122 99.7511 866.044 102.189C867.875 104.511 869.881 107.107 871.515 109.781C873.93 113.734 874.657 118.999 874.923 123.544C875.208 128.42 875.013 133.985 874.663 139.481C873.929 151.034 872.615 161.706 872.615 169.192C872.615 177.871 870.93 184.603 869.726 189.359C871.142 188.576 873.034 187.587 874.96 187.009C877.543 186.234 884.169 184.471 890.25 185.56C893.492 186.14 897.495 187.704 900.207 191.583C902.916 195.459 903.327 200.203 902.506 204.967C901.452 211.079 897.61 215.616 893.644 218.949C889.668 222.291 884.749 225.101 880.149 227.558C875.279 230.16 870.876 232.318 866.716 234.766C862.589 237.194 859.643 239.392 857.858 241.517C853.417 246.804 852.42 250.587 852.488 253.385C852.562 256.388 853.885 259.689 856.805 263.957C857.201 264.536 857.992 265.228 859.83 265.827C861.733 266.447 864.186 266.779 867.181 266.955C868.647 267.041 870.125 267.086 871.666 267.131C873.16 267.175 874.759 267.221 876.263 267.317C877.755 267.411 879.379 267.567 880.936 267.882C882.431 268.184 884.351 268.725 886.142 269.864C887.34 270.627 889.251 271.815 890.783 273.279C892.516 274.936 894.405 277.534 894.604 281.225C894.786 284.59 893.471 287.553 892.005 289.918C890.497 292.351 888.308 294.972 885.54 297.871C875.517 308.372 867.348 318.855 865.581 337.403C864.84 345.189 868.559 353.326 873.796 360.943C876.34 364.645 879.023 367.916 881.346 370.741C882.468 372.107 883.59 373.468 884.486 374.649C885.202 375.592 886.264 377.034 886.947 378.594L887.079 378.907L887.253 379.359C890.758 388.869 885.137 398.926 876.115 405.693C871.145 409.42 871.841 412.568 870.001 422.995C869.274 427.115 866.484 431.221 864.106 434.3C861.462 437.724 858.151 441.324 854.908 444.631C851.642 447.962 848.317 451.124 845.593 453.675C844.013 455.154 842.714 456.355 841.719 457.283C854.186 457.984 865.176 462.695 870.038 465.505C887.653 473.303 906.104 475.436 920.867 475.318C928.272 475.258 934.652 474.633 939.394 473.917C941.766 473.559 943.692 473.183 945.101 472.857C946.681 472.49 947.211 472.276 947.069 472.339C949.185 471.399 952.563 469.711 954.827 467.035C956.646 464.886 958.086 461.809 956.066 456.255C950.8 441.772 953.021 430.64 957.013 425.324C968.917 407.562 968.617 388.384 968.12 374.46C967.909 368.548 966.452 356.426 967.671 346.468C968.303 341.306 969.718 335.687 972.983 331.014C976.46 326.038 981.69 322.647 988.661 321.753C992.32 321.284 995.875 321.73 999.087 323.302C1002.27 324.862 1004.6 327.274 1006.26 329.896C1009.42 334.896 1010.54 341.277 1010.91 346.887C1011.48 355.536 1010.39 364.874 1009.36 371.002C1010.9 369.71 1012.6 368.379 1014.34 367.242C1016.63 365.746 1019.88 363.975 1023.58 363.711C1029.09 363.318 1034.37 365.118 1038.19 369.168C1041.93 373.125 1043.62 378.51 1043.62 384.193C1043.62 388.481 1041.72 392.282 1039.83 395.203C1037.86 398.237 1035.26 401.296 1032.62 404.216C1027.08 410.359 1021.12 416.276 1016.19 423.091C1012.14 428.679 1010.46 435.881 1010.24 443.416C1010.01 450.903 1011.25 458.079 1012.41 462.955C1012.89 464.957 1013.96 466.13 1015.24 466.934C1016.69 467.849 1018.28 468.17 1018.96 468.2H1018.97L1018.98 468.201L1090.6 471.683C1101.07 471.178 1106.38 470.072 1109.75 468.302C1112.71 466.75 1114.94 464.277 1117.91 458.338C1119.94 454.277 1119.38 450.243 1118.5 443.698C1117.73 438.036 1116.4 428.799 1123.81 421.389C1131.97 413.235 1138.86 401.247 1141.5 393.32C1142.39 390.662 1143.21 388.529 1144.01 385.866C1144.76 383.334 1145.2 381.19 1145.24 379.457C1145.28 377.77 1144.93 377.057 1144.7 376.745C1144.51 376.492 1143.76 375.62 1141.01 375.019C1138.73 374.52 1134.69 374.845 1128.87 376.052C1126.14 376.62 1123.28 377.317 1120.37 378.045C1117.5 378.76 1114.52 379.517 1111.75 380.137C1109 380.753 1106.18 381.295 1103.6 381.536C1101.21 381.76 1098.08 381.833 1095.2 380.791C1093.64 380.225 1091.91 379.245 1090.5 377.572C1089.05 375.856 1088.31 373.851 1088.09 371.875C1087.69 368.317 1088.96 364.81 1090.38 361.904C1093.4 355.695 1097.57 350.937 1101.54 347.072C1103.52 345.152 1105.52 343.386 1107.3 341.812C1109.13 340.191 1110.7 338.797 1112.09 337.425C1114.92 334.62 1116.14 332.692 1116.54 331.013C1116.89 329.6 1116.93 327.185 1114.53 322.783C1113.1 320.166 1111.66 317.727 1110.19 315.243C1108.75 312.804 1107.28 310.293 1105.95 307.751C1103.27 302.608 1100.98 296.987 1100.28 290.281C1098.88 276.848 1104.07 261.264 1118.79 238.161C1133.14 215.651 1140.61 200.432 1144.63 187.306C1148.63 174.284 1149.37 162.895 1149.62 147.571C1149.85 132.901 1147.6 124.504 1144.42 118.514C1141.11 112.244 1136.58 108.031 1130.21 101.386C1116.99 87.6161 1115.42 78.9266 1110.69 67.5773C1105.91 56.0911 1097.23 36.6914 1069.01 30.5187C1054.02 27.24 1032.47 27.1883 1007.21 27.504C982.36 27.8146 954.425 28.4537 927.969 26.1642C901.917 23.9097 891.02 23.5856 886.28 23.8087C885.048 23.8667 884.423 23.9575 884.175 24.0021L884.174 24.003C884.083 24.0491 883.94 24.1215 883.771 24.2003C882.92 24.5989 881.927 24.9385 880.676 25.1173C880.77 25.1038 880.183 25.2038 879.189 25.7081C878.264 26.1776 877.18 26.901 876.155 27.9454C874.243 29.8936 872.115 33.3727 872.115 39.6925Z" fill="white"/>
</svg>
